<svg xmlns="http://www.w3.org/2000/svg" xmlns:xlink="http://www.w3.org/1999/xlink" width="300" zoomAndPan="magnify" viewBox="0 0 224.87999 74.999997" height="100" preserveAspectRatio="xMidYMid meet" version="1.0"><defs><g/><clipPath id="5e68a247ec"><path d="M 0 0.0195312 L 224.761719 0.0195312 L 224.761719 74.980469 L 0 74.980469 Z M 0 0.0195312 " clip-rule="nonzero"/></clipPath><clipPath id="019b0ebfff"><path d="M 58 14 L 224.761719 14 L 224.761719 40 L 58 40 Z M 58 14 " clip-rule="nonzero"/></clipPath><clipPath id="719ceb1990"><rect x="0" width="167" y="0" height="26"/></clipPath><clipPath id="9d5f90813a"><path d="M 6 5.449219 L 24 5.449219 L 24 22 L 6 22 Z M 6 5.449219 " clip-rule="nonzero"/></clipPath><clipPath id="65cde50602"><path d="M 27 56 L 41 56 L 41 67.667969 L 27 67.667969 Z M 27 56 " clip-rule="nonzero"/></clipPath><clipPath id="6e3331b132"><path d="M 47 27 L 55.46875 27 L 55.46875 39 L 47 39 Z M 47 27 " clip-rule="nonzero"/></clipPath><clipPath id="1b1c4ad312"><path d="M 20 5.449219 L 24 5.449219 L 24 12 L 20 12 Z M 20 5.449219 " clip-rule="nonzero"/></clipPath><clipPath id="5f2e42494a"><path d="M 95 33 L 224.761719 33 L 224.761719 59 L 95 59 Z M 95 33 " clip-rule="nonzero"/></clipPath><clipPath id="72b86f40d3"><rect x="0" width="130" y="0" height="26"/></clipPath></defs><g clip-path="url(#5e68a247ec)"><path fill="#ffffff" d="M 0 0.0195312 L 224.878906 0.0195312 L 224.878906 74.980469 L 0 74.980469 Z M 0 0.0195312 " fill-opacity="1" fill-rule="nonzero"/><path fill="#ffffff" d="M 0 0.0195312 L 224.878906 0.0195312 L 224.878906 74.980469 L 0 74.980469 Z M 0 0.0195312 " fill-opacity="1" fill-rule="nonzero"/></g><g clip-path="url(#019b0ebfff)"><g transform="matrix(1, 0, 0, 1, 58, 14)"><g clip-path="url(#719ceb1990)"><g fill="#01943e" fill-opacity="1"><g transform="translate(1.416504, 20.523868)"><g><path d="M 0.140625 0 L 6.34375 -14.703125 L 10.234375 -14.703125 L 16.453125 0 L 12.125 0 L 11.078125 -2.625 L 5.421875 -2.625 L 4.375 0 Z M 6.609375 -5.78125 L 9.890625 -5.78125 L 8.265625 -9.90625 Z M 6.609375 -5.78125 "/></g></g></g><g fill="#01943e" fill-opacity="1"><g transform="translate(17.574919, 20.523868)"><g><path d="M 1.765625 0 L 1.765625 -8.109375 L 0.453125 -8.109375 L 0.453125 -11.25 L 1.765625 -11.25 L 1.765625 -11.46875 C 1.765625 -12.113281 1.84375 -12.675781 2 -13.15625 C 2.15625 -13.644531 2.398438 -14.054688 2.734375 -14.390625 C 3.078125 -14.742188 3.484375 -14.992188 3.953125 -15.140625 C 4.429688 -15.296875 5.007812 -15.375 5.6875 -15.375 C 6.289062 -15.375 6.789062 -15.34375 7.1875 -15.28125 C 7.59375 -15.226562 7.953125 -15.15625 8.265625 -15.0625 L 8.265625 -12.265625 C 8.035156 -12.335938 7.800781 -12.394531 7.5625 -12.4375 C 7.332031 -12.476562 7.070312 -12.5 6.78125 -12.5 C 6.414062 -12.5 6.132812 -12.410156 5.9375 -12.234375 C 5.75 -12.054688 5.65625 -11.789062 5.65625 -11.4375 L 5.65625 -11.15625 L 8.265625 -11.15625 L 8.265625 -8.109375 L 5.734375 -8.109375 L 5.734375 0 Z M 1.765625 0 "/></g></g></g><g fill="#01943e" fill-opacity="1"><g transform="translate(25.998202, 20.523868)"><g><path d="M 1.0625 0 L 1.0625 -11.28125 L 5.03125 -11.28125 L 5.03125 -9.015625 C 5.34375 -9.773438 5.78125 -10.382812 6.34375 -10.84375 C 6.914062 -11.300781 7.664062 -11.507812 8.59375 -11.46875 L 8.59375 -7.296875 L 8.265625 -7.296875 C 7.234375 -7.296875 6.4375 -6.988281 5.875 -6.375 C 5.3125 -5.769531 5.03125 -4.820312 5.03125 -3.53125 L 5.03125 0 Z M 1.0625 0 "/></g></g></g><g fill="#01943e" fill-opacity="1"><g transform="translate(34.921874, 20.523868)"><g><path d="M 1.078125 -12.3125 L 1.078125 -15.234375 L 5.1875 -15.234375 L 5.1875 -12.3125 Z M 1.171875 0 L 1.171875 -11.28125 L 5.109375 -11.28125 L 5.109375 0 Z M 1.171875 0 "/></g></g></g><g fill="#01943e" fill-opacity="1"><g transform="translate(41.197635, 20.523868)"><g><path d="M 6.53125 0.265625 C 5.675781 0.265625 4.890625 0.109375 4.171875 -0.203125 C 3.453125 -0.515625 2.828125 -0.929688 2.296875 -1.453125 C 1.765625 -1.984375 1.351562 -2.609375 1.0625 -3.328125 C 0.769531 -4.046875 0.625 -4.800781 0.625 -5.59375 L 0.625 -5.625 C 0.625 -6.425781 0.769531 -7.179688 1.0625 -7.890625 C 1.351562 -8.609375 1.765625 -9.234375 2.296875 -9.765625 C 2.828125 -10.304688 3.460938 -10.734375 4.203125 -11.046875 C 4.941406 -11.359375 5.757812 -11.515625 6.65625 -11.515625 C 7.8125 -11.515625 8.785156 -11.285156 9.578125 -10.828125 C 10.367188 -10.367188 11 -9.765625 11.46875 -9.015625 L 8.796875 -7.015625 C 8.523438 -7.367188 8.222656 -7.65625 7.890625 -7.875 C 7.566406 -8.09375 7.171875 -8.203125 6.703125 -8.203125 C 6.054688 -8.203125 5.519531 -7.953125 5.09375 -7.453125 C 4.675781 -6.953125 4.46875 -6.359375 4.46875 -5.671875 L 4.46875 -5.625 C 4.46875 -4.90625 4.675781 -4.296875 5.09375 -3.796875 C 5.507812 -3.304688 6.050781 -3.0625 6.71875 -3.0625 C 7.1875 -3.0625 7.585938 -3.164062 7.921875 -3.375 C 8.253906 -3.582031 8.578125 -3.867188 8.890625 -4.234375 L 11.53125 -2.3125 C 11.019531 -1.550781 10.363281 -0.929688 9.5625 -0.453125 C 8.757812 0.0234375 7.75 0.265625 6.53125 0.265625 Z M 6.53125 0.265625 "/></g></g></g><g fill="#01943e" fill-opacity="1"><g transform="translate(53.061115, 20.523868)"><g><path d="M 4.296875 0.25 C 3.222656 0.25 2.320312 -0.0507812 1.59375 -0.65625 C 0.875 -1.257812 0.515625 -2.117188 0.515625 -3.234375 L 0.515625 -3.28125 C 0.515625 -4.445312 0.921875 -5.328125 1.734375 -5.921875 C 2.554688 -6.523438 3.625 -6.828125 4.9375 -6.828125 C 5.457031 -6.828125 5.957031 -6.785156 6.4375 -6.703125 C 6.925781 -6.617188 7.332031 -6.515625 7.65625 -6.390625 L 7.65625 -6.578125 C 7.65625 -7.171875 7.46875 -7.625 7.09375 -7.9375 C 6.71875 -8.257812 6.15625 -8.421875 5.40625 -8.421875 C 4.800781 -8.421875 4.253906 -8.363281 3.765625 -8.25 C 3.285156 -8.132812 2.789062 -7.984375 2.28125 -7.796875 L 1.453125 -10.578125 C 2.097656 -10.835938 2.78125 -11.046875 3.5 -11.203125 C 4.226562 -11.367188 5.070312 -11.453125 6.03125 -11.453125 C 7.03125 -11.453125 7.882812 -11.332031 8.59375 -11.09375 C 9.300781 -10.863281 9.878906 -10.523438 10.328125 -10.078125 C 10.753906 -9.660156 11.0625 -9.15625 11.25 -8.5625 C 11.4375 -7.96875 11.53125 -7.273438 11.53125 -6.484375 L 11.53125 0 L 7.640625 0 L 7.640625 -1.1875 C 7.242188 -0.757812 6.769531 -0.410156 6.21875 -0.140625 C 5.675781 0.117188 5.035156 0.25 4.296875 0.25 Z M 5.71875 -2.234375 C 6.300781 -2.234375 6.773438 -2.398438 7.140625 -2.734375 C 7.515625 -3.078125 7.703125 -3.53125 7.703125 -4.09375 L 7.703125 -4.609375 C 7.492188 -4.691406 7.253906 -4.757812 6.984375 -4.8125 C 6.710938 -4.875 6.425781 -4.90625 6.125 -4.90625 C 5.5625 -4.90625 5.117188 -4.78125 4.796875 -4.53125 C 4.472656 -4.28125 4.3125 -3.9375 4.3125 -3.5 L 4.3125 -3.46875 C 4.3125 -3.070312 4.441406 -2.765625 4.703125 -2.546875 C 4.972656 -2.335938 5.3125 -2.234375 5.71875 -2.234375 Z M 5.71875 -2.234375 "/></g></g></g><g fill="#01943e" fill-opacity="1"><g transform="translate(65.550082, 20.523868)"><g/></g></g><g fill="#01943e" fill-opacity="1"><g transform="translate(71.325455, 20.523868)"><g><path d="M 1.296875 0 L 1.296875 -14.609375 L 5.34375 -14.609375 L 5.34375 -9.140625 L 10.53125 -9.140625 L 10.53125 -14.609375 L 14.578125 -14.609375 L 14.578125 0 L 10.53125 0 L 10.53125 -5.546875 L 5.34375 -5.546875 L 5.34375 0 Z M 1.296875 0 "/></g></g></g><g fill="#01943e" fill-opacity="1"><g transform="translate(87.192078, 20.523868)"><g><path d="M 6.828125 0.265625 C 5.929688 0.265625 5.097656 0.109375 4.328125 -0.203125 C 3.566406 -0.515625 2.914062 -0.929688 2.375 -1.453125 C 1.832031 -1.984375 1.40625 -2.609375 1.09375 -3.328125 C 0.78125 -4.046875 0.625 -4.800781 0.625 -5.59375 L 0.625 -5.625 C 0.625 -6.425781 0.78125 -7.1875 1.09375 -7.90625 C 1.40625 -8.625 1.835938 -9.25 2.390625 -9.78125 C 2.941406 -10.320312 3.597656 -10.75 4.359375 -11.0625 C 5.117188 -11.375 5.953125 -11.53125 6.859375 -11.53125 C 7.765625 -11.53125 8.597656 -11.375 9.359375 -11.0625 C 10.117188 -10.75 10.769531 -10.328125 11.3125 -9.796875 C 11.863281 -9.273438 12.296875 -8.65625 12.609375 -7.9375 C 12.921875 -7.21875 13.078125 -6.460938 13.078125 -5.671875 L 13.078125 -5.625 C 13.078125 -4.832031 12.921875 -4.078125 12.609375 -3.359375 C 12.296875 -2.640625 11.863281 -2.007812 11.3125 -1.46875 C 10.769531 -0.9375 10.109375 -0.515625 9.328125 -0.203125 C 8.554688 0.109375 7.722656 0.265625 6.828125 0.265625 Z M 6.859375 -3.09375 C 7.566406 -3.09375 8.140625 -3.335938 8.578125 -3.828125 C 9.015625 -4.316406 9.234375 -4.90625 9.234375 -5.59375 L 9.234375 -5.625 C 9.234375 -6.320312 9.003906 -6.925781 8.546875 -7.4375 C 8.085938 -7.945312 7.515625 -8.203125 6.828125 -8.203125 C 6.109375 -8.203125 5.535156 -7.953125 5.109375 -7.453125 C 4.679688 -6.953125 4.46875 -6.359375 4.46875 -5.671875 L 4.46875 -5.625 C 4.46875 -4.945312 4.691406 -4.351562 5.140625 -3.84375 C 5.585938 -3.34375 6.160156 -3.09375 6.859375 -3.09375 Z M 6.859375 -3.09375 "/></g></g></g><g fill="#01943e" fill-opacity="1"><g transform="translate(100.869492, 20.523868)"><g><path d="M 1.171875 0 L 1.171875 -15.234375 L 5.109375 -15.234375 L 5.109375 0 Z M 1.171875 0 "/></g></g></g><g fill="#01943e" fill-opacity="1"><g transform="translate(107.145254, 20.523868)"><g><path d="M 5.65625 0.25 C 4.988281 0.25 4.347656 0.113281 3.734375 -0.15625 C 3.117188 -0.425781 2.582031 -0.8125 2.125 -1.3125 C 1.675781 -1.8125 1.316406 -2.421875 1.046875 -3.140625 C 0.773438 -3.867188 0.640625 -4.6875 0.640625 -5.59375 L 0.640625 -5.625 C 0.640625 -6.550781 0.773438 -7.378906 1.046875 -8.109375 C 1.316406 -8.835938 1.675781 -9.453125 2.125 -9.953125 C 2.582031 -10.460938 3.113281 -10.851562 3.71875 -11.125 C 4.320312 -11.394531 4.957031 -11.53125 5.625 -11.53125 C 6.476562 -11.53125 7.175781 -11.367188 7.71875 -11.046875 C 8.257812 -10.722656 8.710938 -10.34375 9.078125 -9.90625 L 9.078125 -15.234375 L 13.03125 -15.234375 L 13.03125 0 L 9.078125 0 L 9.078125 -1.5 C 8.679688 -1.03125 8.21875 -0.617188 7.6875 -0.265625 C 7.164062 0.078125 6.488281 0.25 5.65625 0.25 Z M 6.84375 -3.0625 C 7.476562 -3.0625 8.019531 -3.300781 8.46875 -3.78125 C 8.925781 -4.257812 9.15625 -4.875 9.15625 -5.625 L 9.15625 -5.671875 C 9.15625 -6.410156 8.925781 -7.019531 8.46875 -7.5 C 8.019531 -7.988281 7.476562 -8.234375 6.84375 -8.234375 C 6.195312 -8.234375 5.648438 -7.992188 5.203125 -7.515625 C 4.753906 -7.035156 4.53125 -6.421875 4.53125 -5.671875 L 4.53125 -5.625 C 4.53125 -4.875 4.753906 -4.257812 5.203125 -3.78125 C 5.648438 -3.300781 6.195312 -3.0625 6.84375 -3.0625 Z M 6.84375 -3.0625 "/></g></g></g><g fill="#01943e" fill-opacity="1"><g transform="translate(121.239648, 20.523868)"><g><path d="M 1.078125 -12.3125 L 1.078125 -15.234375 L 5.1875 -15.234375 L 5.1875 -12.3125 Z M 1.171875 0 L 1.171875 -11.28125 L 5.109375 -11.28125 L 5.109375 0 Z M 1.171875 0 "/></g></g></g><g fill="#01943e" fill-opacity="1"><g transform="translate(127.51541, 20.523868)"><g><path d="M 1.0625 0 L 1.0625 -11.28125 L 5.03125 -11.28125 L 5.03125 -9.703125 C 5.382812 -10.171875 5.835938 -10.59375 6.390625 -10.96875 C 6.941406 -11.34375 7.613281 -11.53125 8.40625 -11.53125 C 9.601562 -11.53125 10.539062 -11.15625 11.21875 -10.40625 C 11.90625 -9.664062 12.25 -8.660156 12.25 -7.390625 L 12.25 0 L 8.296875 0 L 8.296875 -6.109375 C 8.296875 -6.734375 8.144531 -7.207031 7.84375 -7.53125 C 7.550781 -7.863281 7.171875 -8.03125 6.703125 -8.03125 C 6.222656 -8.03125 5.820312 -7.863281 5.5 -7.53125 C 5.1875 -7.207031 5.03125 -6.734375 5.03125 -6.109375 L 5.03125 0 Z M 1.0625 0 "/></g></g></g><g fill="#01943e" fill-opacity="1"><g transform="translate(140.734123, 20.523868)"><g><path d="M 6.609375 3.375 C 5.523438 3.375 4.515625 3.265625 3.578125 3.046875 C 2.648438 2.828125 1.785156 2.507812 0.984375 2.09375 L 2.25 -0.546875 C 2.851562 -0.210938 3.472656 0.046875 4.109375 0.234375 C 4.742188 0.421875 5.4375 0.515625 6.1875 0.515625 C 7.164062 0.515625 7.898438 0.273438 8.390625 -0.203125 C 8.890625 -0.679688 9.140625 -1.363281 9.140625 -2.25 L 9.140625 -2.6875 C 8.742188 -2.226562 8.269531 -1.832031 7.71875 -1.5 C 7.164062 -1.164062 6.484375 -1 5.671875 -1 C 4.972656 -1 4.316406 -1.117188 3.703125 -1.359375 C 3.097656 -1.609375 2.566406 -1.957031 2.109375 -2.40625 C 1.660156 -2.863281 1.300781 -3.414062 1.03125 -4.0625 C 0.769531 -4.707031 0.640625 -5.429688 0.640625 -6.234375 L 0.640625 -6.28125 C 0.640625 -7.082031 0.769531 -7.8125 1.03125 -8.46875 C 1.300781 -9.125 1.660156 -9.675781 2.109375 -10.125 C 2.566406 -10.582031 3.085938 -10.929688 3.671875 -11.171875 C 4.265625 -11.410156 4.882812 -11.53125 5.53125 -11.53125 C 6.375 -11.53125 7.070312 -11.378906 7.625 -11.078125 C 8.175781 -10.773438 8.660156 -10.398438 9.078125 -9.953125 L 9.078125 -11.28125 L 13.03125 -11.28125 L 13.03125 -2.71875 C 13.03125 -1.6875 12.910156 -0.796875 12.671875 -0.046875 C 12.441406 0.691406 12.078125 1.304688 11.578125 1.796875 C 11.066406 2.304688 10.398438 2.695312 9.578125 2.96875 C 8.765625 3.238281 7.773438 3.375 6.609375 3.375 Z M 6.84375 -4.046875 C 7.519531 -4.046875 8.070312 -4.253906 8.5 -4.671875 C 8.9375 -5.085938 9.15625 -5.609375 9.15625 -6.234375 L 9.15625 -6.28125 C 9.15625 -6.90625 8.9375 -7.425781 8.5 -7.84375 C 8.0625 -8.257812 7.507812 -8.46875 6.84375 -8.46875 C 6.15625 -8.46875 5.597656 -8.257812 5.171875 -7.84375 C 4.742188 -7.425781 4.53125 -6.898438 4.53125 -6.265625 L 4.53125 -6.21875 C 4.53125 -5.59375 4.742188 -5.070312 5.171875 -4.65625 C 5.597656 -4.25 6.15625 -4.046875 6.84375 -4.046875 Z M 6.84375 -4.046875 "/></g></g></g><g fill="#01943e" fill-opacity="1"><g transform="translate(154.828518, 20.523868)"><g><path d="M 5.546875 0.25 C 4.597656 0.25 3.664062 0.109375 2.75 -0.171875 C 1.832031 -0.460938 0.992188 -0.882812 0.234375 -1.4375 L 1.703125 -3.8125 C 2.347656 -3.382812 3.003906 -3.0625 3.671875 -2.84375 C 4.347656 -2.632812 4.976562 -2.53125 5.5625 -2.53125 C 5.914062 -2.53125 6.175781 -2.582031 6.34375 -2.6875 C 6.507812 -2.789062 6.59375 -2.9375 6.59375 -3.125 L 6.59375 -3.171875 C 6.59375 -3.390625 6.4375 -3.566406 6.125 -3.703125 C 5.8125 -3.835938 5.351562 -3.988281 4.75 -4.15625 C 4.195312 -4.289062 3.675781 -4.453125 3.1875 -4.640625 C 2.707031 -4.828125 2.285156 -5.050781 1.921875 -5.3125 C 1.554688 -5.582031 1.269531 -5.914062 1.0625 -6.3125 C 0.851562 -6.707031 0.75 -7.179688 0.75 -7.734375 L 0.75 -7.78125 C 0.75 -8.375 0.863281 -8.90625 1.09375 -9.375 C 1.320312 -9.84375 1.632812 -10.234375 2.03125 -10.546875 C 2.425781 -10.859375 2.898438 -11.097656 3.453125 -11.265625 C 4.015625 -11.429688 4.625 -11.515625 5.28125 -11.515625 C 6.101562 -11.515625 6.921875 -11.398438 7.734375 -11.171875 C 8.554688 -10.941406 9.285156 -10.617188 9.921875 -10.203125 L 8.578125 -7.703125 C 7.992188 -8.035156 7.398438 -8.296875 6.796875 -8.484375 C 6.203125 -8.671875 5.679688 -8.765625 5.234375 -8.765625 C 4.929688 -8.765625 4.703125 -8.710938 4.546875 -8.609375 C 4.390625 -8.503906 4.3125 -8.367188 4.3125 -8.203125 L 4.3125 -8.15625 C 4.3125 -7.9375 4.472656 -7.757812 4.796875 -7.625 C 5.117188 -7.488281 5.570312 -7.332031 6.15625 -7.15625 C 6.707031 -7 7.226562 -6.828125 7.71875 -6.640625 C 8.207031 -6.453125 8.628906 -6.222656 8.984375 -5.953125 C 9.347656 -5.679688 9.632812 -5.347656 9.84375 -4.953125 C 10.050781 -4.566406 10.15625 -4.101562 10.15625 -3.5625 L 10.15625 -3.53125 C 10.15625 -2.289062 9.726562 -1.347656 8.875 -0.703125 C 8.03125 -0.0664062 6.921875 0.25 5.546875 0.25 Z M 5.546875 0.25 "/></g></g></g></g></g></g><g clip-path="url(#9d5f90813a)"><path fill="#01943e" d="M 10.832031 10.65625 C 10.917969 10.621094 10.984375 10.613281 11.023438 10.574219 C 11.375 10.222656 11.808594 10.15625 12.273438 10.214844 C 12.707031 10.273438 12.941406 10.089844 13.03125 9.625 C 12.414062 9.132812 12.414062 8.347656 12.175781 7.597656 C 12.984375 7.148438 13.757812 6.683594 14.566406 6.28125 C 14.832031 6.148438 15.183594 6.171875 15.492188 6.15625 C 17.125 6.054688 18.765625 5.964844 20.398438 5.871094 C 20.457031 5.871094 20.507812 5.890625 20.609375 5.914062 C 20.542969 6.457031 20.5 7 20.417969 7.539062 C 20.398438 7.683594 20.300781 7.824219 20.214844 7.949219 C 20.105469 8.105469 19.957031 8.246094 19.832031 8.390625 C 19.984375 8.972656 20.273438 9.429688 20.734375 9.757812 C 21.03125 9.972656 21.183594 10.246094 21.234375 10.589844 C 21.292969 11.015625 21.339844 11.441406 21.40625 11.863281 C 21.425781 11.996094 21.464844 12.132812 21.53125 12.25 C 21.949219 13.015625 21.707031 13.839844 21.730469 14.632812 C 21.734375 14.789062 21.515625 14.941406 21.375 15.132812 C 21.480469 15.257812 21.605469 15.375 21.691406 15.523438 C 21.808594 15.722656 21.933594 15.933594 21.972656 16.15625 C 22.023438 16.496094 22.175781 16.648438 22.515625 16.648438 C 22.972656 16.648438 23.230469 16.914062 23.398438 17.355469 C 22.707031 17.804688 22.023438 18.257812 21.324219 18.699219 C 20.472656 19.230469 19.617188 19.773438 18.914062 20.5 C 18.53125 20.898438 18.042969 20.929688 17.566406 21.015625 C 17.257812 21.074219 16.941406 21.105469 16.597656 21.15625 C 16.566406 20.941406 16.542969 20.738281 16.507812 20.480469 C 16.222656 20.363281 15.914062 20.25 15.609375 20.121094 C 15.332031 19.996094 15.023438 19.941406 14.949219 19.539062 C 14.917969 19.390625 14.675781 19.28125 14.515625 19.171875 C 12.175781 17.671875 9.839844 16.171875 7.492188 14.671875 C 6.917969 14.304688 6.773438 13.972656 6.898438 13.296875 C 6.914062 13.222656 6.941406 13.125 6.992188 13.089844 C 7.398438 12.824219 7.722656 12.414062 8.242188 12.347656 C 8.28125 12.339844 8.316406 12.316406 8.355469 12.316406 C 9.230469 12.28125 9.898438 11.816406 10.550781 11.289062 C 10.773438 11.113281 10.925781 10.941406 10.832031 10.65625 Z M 10.832031 10.65625 " fill-opacity="1" fill-rule="nonzero"/></g><path fill="#01943e" d="M 33.125 29.929688 C 33.140625 29.796875 33.132812 29.691406 33.164062 29.605469 C 33.28125 29.230469 33.175781 28.914062 32.917969 28.625 C 32.699219 28.382812 32.558594 28.113281 32.707031 27.871094 C 32.550781 27.539062 32.433594 27.273438 32.300781 27.015625 C 32.214844 26.847656 32.109375 26.683594 32.015625 26.515625 C 31.972656 26.515625 31.917969 26.523438 31.875 26.523438 C 32.132812 25.765625 32.390625 25 32.65625 24.222656 C 32.941406 24.199219 33.214844 24.171875 33.558594 24.140625 C 33.597656 23.53125 33.574219 22.929688 33.574219 22.316406 C 33.582031 21.730469 33.574219 21.132812 33.574219 20.5 C 33.839844 20.480469 34.089844 20.457031 34.398438 20.429688 C 34.398438 19.898438 34.398438 19.375 34.398438 18.816406 C 34.65625 18.804688 34.847656 18.789062 35.039062 18.789062 C 36.339844 18.789062 37.648438 18.832031 38.949219 18.765625 C 39.492188 18.738281 40.023438 18.816406 40.566406 18.789062 C 41.097656 18.757812 41.632812 18.78125 42.167969 18.78125 C 42.722656 18.78125 43.273438 18.78125 43.882812 18.78125 C 43.949219 18.988281 44.023438 19.179688 44.066406 19.382812 C 44.109375 19.597656 44.132812 19.816406 44.125 20.03125 C 44.109375 20.757812 44.148438 21.449219 44.90625 21.847656 C 44.992188 21.898438 45.039062 22.03125 45.117188 22.148438 C 44.765625 22.546875 44.414062 22.90625 43.808594 22.90625 C 43.714844 23.730469 43.433594 24.488281 43.433594 25.308594 C 43.433594 25.796875 43.398438 26.332031 42.90625 26.671875 C 42.773438 26.757812 42.722656 26.964844 42.648438 27.125 C 42.550781 27.324219 42.472656 27.523438 42.382812 27.722656 C 42.199219 28.121094 42.199219 28.121094 41.714844 28.238281 C 41.632812 28.855469 41.550781 29.496094 41.472656 30.140625 C 41.265625 30.164062 41.089844 30.183594 40.867188 30.214844 C 40.800781 30.464844 40.734375 30.722656 40.65625 31.015625 C 41.457031 31.089844 41.75 31.648438 42.039062 32.214844 C 42.222656 32.566406 42.308594 33.007812 42.789062 33.140625 C 42.832031 33.15625 42.847656 33.308594 42.882812 33.433594 C 42.757812 33.457031 42.667969 33.5 42.582031 33.496094 C 42.039062 33.457031 41.574219 33.566406 41.257812 34.066406 C 41.199219 34.164062 41.03125 34.222656 40.90625 34.230469 C 40.355469 34.273438 39.800781 34.289062 39.25 34.339844 C 38.972656 34.363281 38.75 34.296875 38.574219 34.066406 C 38.484375 33.957031 38.375 33.875 38.289062 33.773438 C 38.117188 33.574219 37.941406 33.488281 37.664062 33.574219 C 37.417969 33.648438 37.164062 33.65625 36.875 33.699219 C 36.257812 32.964844 35.632812 32.230469 35.007812 31.496094 C 34.792969 31.238281 34.605469 30.957031 34.367188 30.714844 C 34.191406 30.539062 33.972656 30.398438 33.765625 30.257812 C 33.566406 30.140625 33.367188 30.054688 33.125 29.929688 Z M 33.125 29.929688 " fill-opacity="1" fill-rule="nonzero"/><path fill="#01943e" d="M 24.382812 42.640625 C 24.367188 42.507812 24.332031 42.371094 24.339844 42.238281 C 24.359375 41.824219 24.523438 41.730469 24.933594 41.863281 C 25.132812 41.707031 25.316406 41.554688 25.566406 41.355469 C 25.632812 41.574219 25.675781 41.714844 25.734375 41.90625 C 25.867188 41.855469 26.015625 41.839844 26.097656 41.757812 C 26.433594 41.429688 26.75 41.074219 27.089844 40.746094 C 27.273438 40.566406 27.289062 40.355469 27.257812 40.148438 C 27.167969 39.582031 27.375 39.15625 27.808594 38.808594 C 28.324219 38.40625 28.566406 37.875 28.558594 37.230469 C 28.558594 36.957031 28.589844 36.679688 28.605469 36.398438 C 28.625 35.957031 28.699219 35.546875 28.949219 35.164062 C 29.058594 34.996094 29.164062 34.75 29.140625 34.558594 C 29.058594 33.914062 29.382812 33.566406 29.964844 33.316406 C 30.5 33.964844 31.332031 33.964844 32.097656 34.191406 C 32.265625 33.996094 32.433594 33.808594 32.605469 33.621094 C 33.230469 33.707031 33.832031 33.539062 34.347656 33.257812 C 34.707031 33.058594 35.007812 33.097656 35.355469 33.140625 C 35.425781 33.148438 35.5 33.199219 35.574219 33.214844 C 35.824219 33.273438 36.097656 33.289062 36.308594 33.40625 C 36.507812 33.515625 36.640625 33.730469 36.816406 33.921875 C 37.175781 33.863281 37.542969 33.804688 38.058594 33.714844 C 38.15625 33.839844 38.273438 34.058594 38.449219 34.207031 C 38.742188 34.464844 38.90625 34.75 38.789062 35.132812 C 38.691406 35.449219 38.898438 35.605469 39.167969 35.796875 C 38.097656 36.464844 37.800781 37.480469 37.808594 38.65625 C 37.699219 38.722656 37.574219 38.804688 37.472656 38.871094 C 37.417969 39.132812 37.375 39.355469 37.347656 39.582031 C 37.332031 39.679688 37.308594 39.789062 37.347656 39.871094 C 37.609375 40.472656 37.648438 41.105469 37.625 41.75 C 37.625 41.863281 37.675781 41.980469 37.707031 42.089844 C 37.742188 42.199219 37.839844 42.339844 37.808594 42.421875 C 37.617188 42.933594 37.984375 43.214844 38.234375 43.558594 C 38.417969 43.808594 38.53125 44.113281 38.699219 44.449219 C 38.417969 44.507812 38.175781 44.558594 37.933594 44.597656 C 37.214844 44.707031 36.792969 45.222656 36.941406 45.90625 C 37.066406 46.488281 37.066406 47.039062 36.824219 47.574219 C 37.222656 48.023438 37.375 48.105469 37.949219 48.191406 C 37.957031 48.375 37.972656 48.566406 37.980469 48.773438 C 37.734375 48.921875 37.574219 48.933594 37.390625 48.664062 C 37.242188 48.441406 37.023438 48.222656 36.78125 48.125 C 36.425781 47.980469 36.199219 47.746094 36.023438 47.414062 C 35.757812 47.457031 35.605469 47.808594 35.273438 47.632812 C 34.992188 47.480469 34.597656 47.523438 34.472656 47.105469 C 34.289062 47.140625 34.117188 47.179688 33.914062 47.222656 C 33.773438 46.882812 33.5 46.808594 33.15625 46.855469 C 32.808594 46.90625 32.464844 46.929688 32.082031 46.972656 C 32.039062 46.53125 32.097656 46.113281 31.789062 45.765625 C 31.699219 45.671875 31.75 45.414062 31.792969 45.25 C 31.925781 44.738281 31.808594 44.238281 31.742188 43.691406 C 31.558594 43.679688 31.382812 43.671875 31.214844 43.65625 C 31.097656 43.648438 30.972656 43.65625 30.859375 43.621094 C 30.324219 43.414062 30.324219 43.414062 29.824219 43.457031 C 29.734375 43.714844 29.648438 43.988281 29.539062 44.304688 C 29.132812 44.324219 28.722656 44.347656 28.265625 44.375 C 27.992188 43.746094 27.722656 43.121094 27.425781 42.457031 C 26.472656 42.457031 25.53125 42.457031 24.582031 42.464844 C 24.492188 42.464844 24.414062 42.546875 24.324219 42.589844 Z M 24.382812 42.640625 " fill-opacity="1" fill-rule="nonzero"/><path fill="#01943e" d="M 25.359375 17.964844 C 25.042969 17.574219 24.605469 17.433594 24.125 17.363281 C 23.875 17.324219 23.609375 17.289062 23.480469 17.015625 C 23.273438 16.597656 22.925781 16.421875 22.472656 16.421875 C 22.417969 16.421875 22.359375 16.382812 22.382812 16.390625 C 22.15625 15.941406 21.957031 15.546875 21.734375 15.105469 C 22.191406 14.683594 21.914062 14.066406 21.984375 13.5 C 22.066406 12.90625 21.875 12.375 21.566406 11.855469 C 22.105469 11.539062 22.492188 11.171875 22.222656 10.507812 C 22.390625 10.390625 22.523438 10.273438 22.675781 10.191406 C 23.074219 9.980469 23.417969 9.738281 23.324219 9.15625 C 24.316406 9.246094 25.222656 9.515625 26.167969 9.691406 C 26.207031 9.824219 26.25 9.949219 26.28125 10.082031 C 26.316406 10.28125 26.441406 10.382812 26.617188 10.449219 C 27.441406 10.773438 28.265625 11.113281 29.097656 11.421875 C 29.730469 11.65625 30.230469 11.289062 30.242188 10.605469 C 30.25 10.347656 30.242188 10.097656 30.242188 9.824219 C 30.507812 9.691406 30.742188 9.597656 30.964844 9.472656 C 31.484375 9.171875 32 9.441406 32.523438 9.464844 C 32.582031 9.464844 32.632812 9.683594 32.714844 9.855469 C 33.183594 9.941406 33.699219 10.046875 34.234375 10.148438 C 33.917969 10.90625 33.859375 11.625 34.140625 12.371094 C 34.183594 12.496094 34.191406 12.640625 34.191406 12.773438 C 34.191406 15.164062 34.191406 17.554688 34.191406 19.941406 C 34.191406 20.015625 34.175781 20.089844 34.167969 20.164062 C 33.882812 20.347656 33.398438 20.015625 33.292969 20.566406 C 31.605469 19.722656 29.925781 18.882812 28.25 18.046875 C 27.792969 17.816406 27.339844 17.457031 26.867188 17.433594 C 26.417969 17.414062 25.957031 17.757812 25.5 17.941406 C 25.472656 17.957031 25.457031 17.949219 25.359375 17.964844 Z M 25.359375 17.964844 " fill-opacity="1" fill-rule="nonzero"/><g clip-path="url(#65cde50602)"><path fill="#01943e" d="M 30.382812 59.140625 C 30.839844 59.632812 30.667969 60.066406 30.523438 60.480469 C 31.324219 61.089844 32.066406 60.730469 32.742188 59.40625 C 33.347656 59.5 33.90625 60.023438 34.625 59.671875 C 34.648438 59.632812 34.714844 59.554688 34.742188 59.464844 C 34.859375 59.058594 35.058594 58.757812 35.515625 58.683594 C 35.707031 58.65625 35.824219 58.507812 35.824219 58.304688 C 35.816406 57.90625 36.132812 57.730469 36.375 57.507812 C 36.617188 57.289062 36.808594 57.015625 37.222656 57.054688 C 37.382812 57.066406 37.566406 56.855469 37.800781 56.707031 C 38.183594 56.78125 38.640625 56.871094 39.125 56.957031 C 39.359375 57.839844 39.859375 58.664062 39.617188 59.625 C 39.457031 59.648438 39.25 59.621094 39.15625 59.707031 C 38.972656 59.875 38.808594 60.097656 38.730469 60.324219 C 38.640625 60.566406 39.058594 61.105469 39.359375 61.15625 C 39.484375 61.179688 39.664062 61.097656 39.757812 61 C 39.925781 60.839844 40.082031 60.714844 40.347656 60.871094 C 40.265625 61.222656 40.199219 61.589844 40.089844 61.941406 C 40.042969 62.074219 39.914062 62.191406 39.808594 62.304688 C 39.597656 62.53125 39.359375 62.738281 39.15625 62.972656 C 39.023438 63.121094 38.90625 63.28125 38.800781 63.449219 C 38.164062 64.539062 37.199219 65.339844 36.289062 66.179688 C 36.109375 66.339844 35.855469 66.441406 35.617188 66.53125 C 34.816406 66.816406 34.007812 67.066406 33.140625 66.863281 C 32.964844 66.816406 32.75 66.871094 32.558594 66.90625 C 32.097656 67 31.625 67.074219 31.175781 67.222656 C 30.414062 67.480469 29.707031 67.363281 29.039062 66.980469 C 28.917969 66.605469 28.800781 66.246094 28.675781 65.847656 C 29.082031 65.496094 29.097656 65.15625 28.734375 64.699219 C 28.582031 64.5 28.449219 64.28125 28.347656 64.046875 C 28.082031 63.449219 27.839844 62.855469 27.574219 62.207031 C 27.667969 62.105469 27.792969 61.972656 27.925781 61.832031 C 28.066406 62.015625 28.148438 62.25 28.308594 62.324219 C 28.523438 62.429688 28.800781 62.457031 29.042969 62.441406 C 29.347656 62.421875 29.648438 62.523438 29.949219 62.308594 C 30.214844 62.121094 30.375 61.949219 30.359375 61.605469 C 30.332031 60.972656 30.355469 60.339844 30.355469 59.707031 C 30.347656 59.546875 30.367188 59.390625 30.382812 59.140625 Z M 35.832031 62.921875 C 36.007812 63.75 35.964844 63.808594 36.683594 63.921875 C 36.917969 63.75 37.132812 63.582031 37.359375 63.457031 C 37.667969 63.28125 37.859375 63.039062 37.914062 62.664062 C 37.605469 62.457031 37.292969 62.25 36.949219 62.015625 C 36.558594 62.332031 36.183594 62.632812 35.832031 62.921875 Z M 35.832031 62.921875 " fill-opacity="1" fill-rule="nonzero"/></g><path fill="#01943e" d="M 33.339844 20.839844 C 33.339844 21.875 33.339844 22.875 33.339844 23.921875 C 33.074219 23.941406 32.824219 23.964844 32.515625 23.996094 C 32.355469 24.441406 32.183594 24.898438 32.03125 25.363281 C 31.882812 25.808594 31.742188 26.257812 31.589844 26.75 C 31.75 26.808594 31.890625 26.863281 31.984375 26.890625 C 32.15625 27.246094 32.308594 27.574219 32.480469 27.941406 C 32.414062 27.964844 32.332031 28.007812 32.257812 28.007812 C 31.875 28.007812 31.574219 28.222656 31.507812 28.53125 C 31.449219 28.808594 31.289062 28.921875 31.125 29.082031 C 30.757812 29.449219 30.339844 29.65625 29.808594 29.613281 C 29.640625 29.597656 29.464844 29.65625 29.242188 29.679688 C 29.242188 29.804688 29.242188 29.914062 29.242188 30.023438 C 29.242188 30.308594 29.105469 30.5 28.839844 30.597656 C 28.617188 30.679688 28.390625 30.738281 28.164062 30.816406 C 27.875 30.921875 27.589844 31.046875 27.382812 30.691406 C 27.148438 30.804688 26.957031 30.890625 26.75 30.988281 C 26.550781 30.664062 26.390625 30.332031 26.164062 30.046875 C 25.949219 29.773438 25.675781 29.546875 25.414062 29.28125 C 25.832031 28.949219 26.316406 29.207031 26.699219 28.980469 C 26.683594 28.90625 26.691406 28.839844 26.664062 28.804688 C 26.375 28.464844 26.300781 28.074219 26.347656 27.640625 C 26.390625 27.179688 26.222656 26.789062 25.914062 26.457031 C 25.839844 26.375 25.734375 26.308594 25.632812 26.265625 C 25.074219 26.039062 24.875 25.480469 25.214844 24.996094 C 25.605469 24.429688 26.03125 23.882812 26.417969 23.308594 C 26.542969 23.121094 26.664062 22.898438 26.691406 22.671875 C 26.808594 21.890625 26.898438 21.105469 26.984375 20.324219 C 27 20.179688 27.007812 19.980469 26.925781 19.882812 C 26.457031 19.308594 26.433594 18.613281 26.292969 17.882812 C 26.484375 17.796875 26.699219 17.699219 26.90625 17.605469 C 29.050781 18.683594 31.191406 19.765625 33.339844 20.839844 Z M 33.339844 20.839844 " fill-opacity="1" fill-rule="nonzero"/><path fill="#01943e" d="M 9.734375 27.347656 C 9.484375 27.789062 9.625 28.324219 9.273438 28.746094 C 9.148438 28.65625 9.03125 28.574219 8.898438 28.488281 C 8.515625 28.597656 8.183594 28.921875 7.625 28.746094 C 7.347656 28.199219 7.03125 27.574219 6.699219 26.921875 C 6.074219 27.273438 5.464844 27.398438 4.941406 27.089844 C 4.734375 26.679688 4.566406 26.355469 4.359375 25.941406 C 4.339844 25.78125 4.292969 25.5 4.234375 25.132812 C 4.332031 24.980469 4.472656 24.746094 4.640625 24.457031 C 5.03125 25.015625 5.507812 24.78125 5.941406 24.632812 C 6.324219 24.5 6.699219 24.457031 7.097656 24.457031 C 7.90625 24.464844 8.707031 24.457031 9.539062 24.457031 C 9.632812 24.179688 9.714844 23.941406 9.808594 23.671875 C 9.457031 23.464844 9.425781 23.125 9.382812 22.765625 C 9.222656 21.316406 9.039062 19.871094 8.859375 18.421875 C 8.78125 17.757812 8.714844 17.097656 8.632812 16.40625 C 9.273438 16.339844 9.808594 16.355469 10.347656 16.722656 C 11.683594 17.632812 13.058594 18.480469 14.417969 19.347656 C 14.582031 19.449219 14.742188 19.539062 14.78125 19.78125 C 14.800781 19.898438 14.964844 20.03125 15.089844 20.089844 C 15.472656 20.28125 15.875 20.441406 16.28125 20.621094 C 16.292969 20.855469 16.316406 21.089844 16.339844 21.382812 C 16.640625 21.355469 16.90625 21.332031 17.234375 21.304688 C 17.214844 22.324219 17.472656 23.382812 16.582031 24.324219 C 16.289062 24.339844 15.898438 24.347656 15.507812 24.371094 C 15.332031 24.375 15.109375 24.363281 15 24.457031 C 14.699219 24.707031 14.398438 24.691406 14.058594 24.621094 C 13.65625 24.53125 13.292969 24.625 12.933594 24.839844 C 12.257812 25.246094 11.597656 25.65625 11.03125 26.238281 C 10.917969 26.207031 10.816406 26.179688 10.667969 26.132812 C 10.640625 26.179688 10.605469 26.222656 10.574219 26.265625 C 10.523438 26.371094 10.464844 26.480469 10.425781 26.589844 C 10.316406 26.980469 10.125 27.28125 9.734375 27.347656 Z M 9.734375 27.347656 " fill-opacity="1" fill-rule="nonzero"/><path fill="#01943e" d="M 31.875 47.238281 C 32.339844 47.199219 32.75 47.164062 33.183594 47.125 C 33.316406 47.566406 33.230469 48.015625 33.242188 48.523438 C 32.765625 48.523438 32.308594 48.523438 31.816406 48.523438 C 31.78125 48.714844 31.734375 48.847656 31.734375 48.972656 C 31.730469 49.664062 31.734375 50.355469 31.730469 51.046875 C 31.730469 51.296875 31.78125 51.5 31.949219 51.691406 C 32.191406 51.972656 32.40625 52.28125 32.667969 52.613281 C 31.542969 52.921875 30.480469 52.988281 29.414062 52.558594 C 29.109375 52.433594 28.765625 52.382812 28.441406 52.375 C 27.574219 52.355469 26.707031 52.371094 25.839844 52.371094 C 25.605469 52.371094 25.390625 52.347656 25.167969 52.199219 C 25.007812 52.089844 24.675781 52.058594 24.515625 52.15625 C 24.25 52.308594 24.039062 52.28125 23.773438 52.183594 C 23.722656 51.699219 23.683594 51.214844 23.847656 50.730469 C 23.914062 50.523438 23.972656 50.308594 24.007812 50.097656 C 24.132812 49.375 24.480469 48.765625 25 48.265625 C 25.207031 48.074219 25.25 47.871094 25.230469 47.582031 C 25.175781 46.972656 25.082031 46.371094 24.824219 45.808594 C 24.667969 45.472656 24.65625 45.171875 24.941406 44.898438 C 24.691406 44.273438 24.449219 43.679688 24.175781 43.007812 C 24.367188 42.90625 24.542969 42.730469 24.730469 42.722656 C 25.597656 42.691406 26.457031 42.707031 27.339844 42.707031 C 27.617188 43.355469 27.882812 43.972656 28.132812 44.558594 C 28.675781 44.558594 29.183594 44.558594 29.734375 44.558594 C 29.839844 44.257812 29.925781 43.988281 30.042969 43.640625 C 30.539062 43.746094 31.023438 43.847656 31.558594 43.957031 C 31.699219 44.429688 31.664062 44.929688 31.589844 45.433594 C 31.550781 45.679688 31.558594 45.882812 31.730469 46.097656 C 31.824219 46.214844 31.832031 46.421875 31.855469 46.589844 C 31.867188 46.804688 31.867188 46.996094 31.875 47.238281 Z M 31.875 47.238281 " fill-opacity="1" fill-rule="nonzero"/><path fill="#01943e" d="M 14.289062 24.964844 C 14.480469 24.933594 14.648438 24.964844 14.734375 24.890625 C 15.175781 24.515625 15.699219 24.582031 16.207031 24.597656 C 16.632812 24.605469 16.875 24.464844 17.089844 24.082031 C 17.390625 23.546875 17.542969 23.007812 17.492188 22.398438 C 17.464844 22.046875 17.484375 21.691406 17.484375 21.304688 C 17.648438 21.257812 17.789062 21.183594 17.933594 21.183594 C 18.332031 21.179688 18.65625 21.03125 18.933594 20.75 C 19.957031 19.75 21.199219 19.046875 22.382812 18.273438 C 22.542969 18.164062 22.714844 18.058594 22.875 17.949219 C 23.65625 17.449219 23.65625 17.441406 24.550781 17.699219 C 24.714844 17.746094 24.898438 17.816406 25.007812 17.941406 C 25.25 18.207031 25.492188 18.238281 25.792969 18.058594 C 25.859375 18.023438 25.933594 18 26.039062 17.957031 C 26.082031 18.125 26.117188 18.257812 26.140625 18.382812 C 26.234375 18.90625 26.300781 19.429688 26.65625 19.871094 C 26.75 19.988281 26.757812 20.199219 26.734375 20.371094 C 26.65625 21.132812 26.566406 21.898438 26.457031 22.65625 C 26.425781 22.863281 26.316406 23.058594 26.199219 23.238281 C 25.890625 23.691406 25.558594 24.132812 25.234375 24.582031 C 25.039062 24.871094 24.765625 25.121094 24.808594 25.523438 C 24.816406 25.597656 24.734375 25.714844 24.664062 25.75 C 24.316406 25.929688 24 26.183594 23.566406 26.132812 C 23.257812 26.105469 22.933594 26.125 22.617188 26.125 C 22.308594 26.125 21.980469 26.058594 21.765625 26.390625 C 21.730469 26.449219 21.589844 26.472656 21.5 26.464844 C 21.382812 26.457031 21.257812 26.433594 21.164062 26.375 C 20.65625 26.046875 20.148438 25.824219 19.675781 26.308594 C 19.558594 26.25 19.515625 26.238281 19.484375 26.214844 C 19.316406 26.03125 19.164062 25.714844 18.972656 25.683594 C 18.53125 25.625 18.066406 25.683594 17.617188 25.738281 C 17.515625 25.75 17.398438 25.898438 17.339844 26.007812 C 17.125 26.398438 16.941406 26.804688 16.742188 27.207031 C 16.289062 26.921875 16.289062 26.921875 15.890625 27.039062 C 15.816406 26.507812 15.039062 26.738281 14.957031 26.148438 C 14.90625 25.699219 14.222656 25.566406 14.289062 24.964844 Z M 14.289062 24.964844 " fill-opacity="1" fill-rule="nonzero"/><path fill="#01943e" d="M 34.414062 18.539062 C 34.414062 18.308594 34.414062 18.121094 34.414062 17.929688 C 34.414062 16.273438 34.414062 14.613281 34.414062 12.957031 C 34.414062 12.804688 34.464844 12.613281 34.390625 12.488281 C 34.089844 11.949219 34.257812 11.375 34.207031 10.824219 C 34.183594 10.566406 34.367188 10.429688 34.664062 10.429688 C 35.359375 10.429688 36.03125 10.574219 36.683594 10.796875 C 37.191406 10.964844 37.640625 10.929688 38.164062 10.738281 C 38.792969 10.5 39.480469 10.339844 40.167969 10.65625 C 40.355469 10.738281 40.589844 10.738281 40.800781 10.746094 C 41.132812 10.757812 41.464844 10.746094 41.773438 10.746094 C 42.242188 11.671875 42.339844 12.566406 41.800781 13.480469 C 41.566406 13.53125 41.390625 13.441406 41.25 13.199219 C 40.992188 12.738281 40.722656 12.289062 40.449219 11.824219 C 40.167969 11.933594 40.167969 12.097656 40.292969 12.332031 C 41.066406 13.773438 41.824219 15.214844 42.597656 16.65625 C 42.730469 16.90625 42.867188 17.132812 42.824219 17.429688 C 42.789062 17.648438 42.882812 17.796875 43.058594 17.921875 C 43.292969 18.089844 43.507812 18.289062 43.824219 18.546875 C 43.242188 18.546875 42.78125 18.546875 42.308594 18.546875 C 41.582031 18.546875 40.847656 18.554688 40.117188 18.539062 C 39.898438 18.53125 39.675781 18.457031 39.414062 18.40625 C 39.25 18.441406 39.03125 18.539062 38.808594 18.546875 C 37.449219 18.558594 36.089844 18.554688 34.730469 18.554688 C 34.65625 18.558594 34.558594 18.546875 34.414062 18.539062 Z M 34.414062 18.539062 " fill-opacity="1" fill-rule="nonzero"/><path fill="#01943e" d="M 43.023438 32.929688 C 42.605469 32.882812 42.464844 32.605469 42.300781 32.289062 C 42.125 31.941406 41.890625 31.621094 41.675781 31.296875 C 41.507812 31.046875 41.308594 30.832031 40.964844 30.875 C 40.992188 30.433594 40.992188 30.433594 41.664062 30.332031 C 41.742188 29.714844 41.824219 29.082031 41.914062 28.398438 C 42.234375 28.429688 42.40625 28.257812 42.5 27.964844 C 42.605469 27.671875 42.75 27.390625 42.882812 27.105469 C 42.925781 27.015625 42.949219 26.875 43.015625 26.847656 C 43.441406 26.679688 43.449219 26.289062 43.550781 25.933594 C 43.722656 25.363281 43.972656 25.28125 44.515625 25.625 C 44.632812 25.449219 44.742188 25.273438 44.890625 25.054688 C 45.132812 25.363281 45.449219 25.324219 45.742188 25.25 C 46.234375 25.132812 46.65625 25.316406 46.984375 25.621094 C 47.417969 26.007812 47.78125 26.480469 48.183594 26.929688 C 47.90625 27.339844 47.449219 27.671875 47.734375 28.265625 C 47.957031 28.265625 48.183594 28.265625 48.441406 28.265625 C 48.433594 28.375 48.382812 28.488281 48.417969 28.546875 C 48.847656 29.207031 49.28125 29.882812 50.089844 30.125 C 50.859375 30.363281 51.640625 30.566406 52.417969 30.78125 C 52.433594 30.789062 52.449219 30.804688 52.480469 30.832031 C 52.441406 30.890625 52.414062 30.964844 52.359375 31.023438 C 51.773438 31.683594 51.175781 32.347656 50.597656 33.015625 C 50.433594 33.199219 50.265625 33.339844 49.984375 33.265625 C 49.539062 33.15625 49.140625 33.289062 48.78125 33.574219 C 48.65625 33.671875 48.515625 33.746094 48.375 33.824219 C 48.023438 34.023438 47.664062 34.140625 47.265625 33.914062 C 47.015625 33.765625 46.773438 33.808594 46.558594 34 C 46.5 34.054688 46.441406 34.113281 46.375 34.148438 C 46.140625 34.273438 45.890625 34.507812 45.664062 34.496094 C 45.230469 34.464844 44.757812 34.429688 44.425781 34.03125 C 44.199219 33.75 43.914062 33.566406 43.507812 33.597656 C 43.109375 33.632812 43.082031 33.296875 43.023438 32.929688 Z M 43.023438 32.929688 " fill-opacity="1" fill-rule="nonzero"/><path fill="#01943e" d="M 6.847656 15.449219 C 6.882812 15.15625 6.914062 14.921875 6.949219 14.605469 C 7.765625 15.046875 8.480469 15.582031 9.222656 16.121094 C 8.964844 16.140625 8.707031 16.15625 8.398438 16.179688 C 8.425781 16.53125 8.449219 16.855469 8.484375 17.179688 C 8.664062 18.664062 8.855469 20.15625 9.03125 21.640625 C 9.082031 22.089844 9.148438 22.539062 9.183594 22.996094 C 9.207031 23.304688 9.242188 23.582031 9.566406 23.730469 C 9.507812 23.90625 9.457031 24.054688 9.398438 24.230469 C 7.980469 24.332031 6.515625 24.03125 5.167969 24.648438 C 4.972656 24.464844 4.816406 24.316406 4.625 24.140625 C 4.433594 24.421875 4.257812 24.679688 4.058594 24.972656 C 3.933594 24.839844 3.832031 24.738281 3.730469 24.625 C 3.425781 24.296875 3.207031 23.875 2.699219 23.796875 C 2.632812 23.789062 2.558594 23.714844 2.515625 23.65625 C 2.316406 23.390625 2.042969 23.40625 1.765625 23.433594 C 1.441406 23.472656 1.109375 23.5 0.816406 23.53125 C 0.78125 23.449219 0.757812 23.433594 0.765625 23.421875 C 0.925781 22.714844 0.914062 22.015625 0.65625 21.332031 C 0.875 20.78125 0.605469 20.363281 0.292969 19.949219 C 0.234375 19.875 0.230469 19.765625 0.167969 19.605469 C 1.242188 19.605469 2.28125 19.605469 3.367188 19.605469 C 3.367188 19.054688 3.367188 18.566406 3.367188 18.066406 C 3.65625 17.941406 3.898438 17.832031 4.183594 17.707031 C 4.183594 17.023438 4.183594 16.339844 4.183594 15.589844 C 5.082031 15.546875 5.933594 15.5 6.847656 15.449219 Z M 6.847656 15.449219 " fill-opacity="1" fill-rule="nonzero"/><path fill="#01943e" d="M 38.875 39.875 C 39.03125 39.441406 39.125 39.046875 38.839844 38.566406 C 39.714844 38.566406 40.523438 38.558594 41.324219 38.574219 C 41.484375 38.582031 41.664062 38.671875 41.808594 38.757812 C 42.539062 39.183594 43.257812 39.632812 43.984375 40.058594 C 44.183594 40.179688 44.324219 40.289062 44.347656 40.554688 C 44.355469 40.679688 44.5 40.816406 44.609375 40.914062 C 44.941406 41.191406 45.289062 41.449219 45.667969 41.75 C 45.191406 42.398438 45.359375 42.964844 45.730469 43.597656 C 45.925781 43.941406 45.898438 44.441406 45.898438 44.871094 C 45.898438 45.40625 46.082031 45.824219 46.472656 46.171875 C 46.53125 46.222656 46.566406 46.289062 46.617188 46.371094 C 46.117188 46.890625 45.574219 47.273438 44.816406 47.238281 C 44.667969 47.230469 44.484375 47.257812 44.375 47.347656 C 44.03125 47.613281 43.664062 47.488281 43.292969 47.449219 C 43.042969 47.421875 42.792969 47.363281 42.550781 47.363281 C 42.292969 47.363281 42.140625 47.296875 42.097656 47.023438 C 42.058594 46.773438 42 46.523438 41.941406 46.273438 C 41.824219 45.816406 41.675781 45.722656 41.199219 45.679688 C 40.957031 45.65625 40.714844 45.566406 40.472656 45.488281 C 40.359375 45.449219 40.265625 45.375 40.15625 45.332031 C 39.40625 45.015625 38.824219 44.558594 38.550781 43.738281 C 38.449219 43.414062 38.058594 43.15625 38.03125 42.855469 C 38 42.523438 37.972656 42.207031 37.859375 41.890625 C 37.824219 41.789062 37.855469 41.664062 37.855469 41.53125 C 38.441406 41.355469 38.742188 40.90625 38.933594 40.382812 C 38.992188 40.246094 38.898438 40.054688 38.875 39.875 Z M 38.875 39.875 " fill-opacity="1" fill-rule="nonzero"/><path fill="#01943e" d="M 20.890625 33.757812 C 20.199219 33.757812 19.53125 33.757812 18.800781 33.757812 C 18.742188 33.664062 18.632812 33.523438 18.550781 33.375 C 18.339844 32.996094 18.066406 32.671875 17.722656 32.390625 C 17.433594 32.164062 17.164062 32.054688 16.800781 32.125 C 16.691406 32.148438 16.574219 32.125 16.441406 32.125 C 16.382812 31.574219 16.316406 31.054688 16.289062 30.523438 C 16.28125 30.339844 16.347656 30.140625 16.417969 29.964844 C 16.574219 29.582031 16.734375 29.199219 16.914062 28.832031 C 17.082031 28.480469 17.105469 28.140625 17.03125 27.75 C 16.90625 27.082031 17.265625 26.539062 17.632812 26.023438 C 17.683594 25.949219 17.847656 25.941406 17.957031 25.933594 C 18.273438 25.914062 18.582031 25.898438 18.917969 25.882812 C 19.109375 26.113281 19.292969 26.339844 19.5 26.589844 C 19.589844 26.558594 19.683594 26.546875 19.765625 26.496094 C 20.167969 26.257812 20.53125 26.222656 20.957031 26.515625 C 21.292969 26.75 21.714844 26.890625 22.058594 26.449219 C 22.109375 26.390625 22.234375 26.375 22.324219 26.363281 C 22.464844 26.347656 22.605469 26.355469 22.734375 26.355469 C 23.484375 26.371094 24.234375 26.429688 24.859375 25.863281 C 25.082031 26.171875 25.339844 26.390625 25.324219 26.773438 C 25.316406 26.871094 25.464844 26.980469 25.558594 27.066406 C 25.808594 27.296875 25.816406 27.507812 25.515625 27.65625 C 25.234375 27.789062 25.109375 28 25 28.265625 C 24.832031 28.683594 24.640625 29.097656 24.472656 29.515625 C 24.375 29.75 24.292969 29.980469 24.015625 30.089844 C 23.898438 30.132812 23.816406 30.324219 23.757812 30.457031 C 23.542969 30.941406 23.355469 31.433594 23.125 31.980469 C 22.949219 31.773438 22.816406 31.621094 22.683594 31.457031 C 22.03125 31.371094 21.789062 31.933594 21.390625 32.25 C 20.914062 32.648438 21.148438 33.238281 20.890625 33.757812 Z M 20.890625 33.757812 " fill-opacity="1" fill-rule="nonzero"/><path fill="#01943e" d="M 30.980469 53.089844 C 30.941406 53.371094 30.890625 53.566406 30.890625 53.773438 C 30.882812 54.605469 30.882812 55.429688 30.882812 56.304688 C 30.648438 56.332031 30.417969 56.355469 30.140625 56.382812 C 30.132812 56.605469 30.109375 56.808594 30.109375 57.023438 C 30.109375 58.464844 30.109375 59.898438 30.109375 61.339844 C 30.109375 62.082031 30.007812 62.179688 29.273438 62.191406 C 29.15625 62.191406 29.039062 62.230469 28.917969 62.230469 C 28.609375 62.246094 28.339844 62.222656 28.230469 61.839844 C 28.191406 61.714844 28.03125 61.625 27.90625 61.5 C 27.792969 61.632812 27.722656 61.722656 27.640625 61.804688 C 27.558594 61.882812 27.464844 61.957031 27.375 62.039062 C 26.855469 61.65625 26.558594 61.183594 26.433594 60.539062 C 26.207031 59.398438 25.941406 58.273438 25.867188 57.105469 C 25.855469 56.90625 25.742188 56.691406 25.625 56.515625 C 25.222656 55.933594 24.882812 55.324219 24.640625 54.648438 C 24.492188 54.230469 24.222656 53.847656 23.972656 53.472656 C 23.773438 53.171875 23.691406 52.875 23.800781 52.496094 C 24.066406 52.472656 24.367188 52.589844 24.625 52.363281 C 24.707031 52.289062 24.992188 52.324219 25.105469 52.414062 C 25.332031 52.597656 25.566406 52.605469 25.824219 52.605469 C 26.714844 52.605469 27.597656 52.597656 28.484375 52.605469 C 28.699219 52.605469 28.933594 52.589844 29.125 52.679688 C 29.722656 52.949219 30.347656 53.089844 30.980469 53.089844 Z M 30.980469 53.089844 " fill-opacity="1" fill-rule="nonzero"/><path fill="#01943e" d="M 40.339844 59.671875 C 40.605469 60.414062 40.558594 60.507812 39.992188 60.507812 C 39.957031 60.007812 39.914062 59.507812 39.890625 59.007812 C 39.875 58.613281 39.816406 58.238281 39.65625 57.863281 C 39.523438 57.558594 39.464844 57.230469 39.367188 56.898438 C 39.882812 56.316406 40.375 55.757812 40.640625 55.039062 C 40.734375 54.78125 40.773438 54.554688 40.675781 54.308594 C 40.566406 54.023438 40.558594 53.75 40.65625 53.449219 C 40.734375 53.214844 40.75 52.949219 40.75 52.699219 C 40.75 52.449219 40.683594 52.191406 40.648438 51.929688 C 40.234375 51.707031 39.839844 51.457031 39.414062 51.273438 C 39.214844 51.183594 38.957031 51.222656 38.691406 51.199219 C 38.648438 51.007812 38.597656 50.78125 38.523438 50.480469 C 39.265625 50.230469 40 49.988281 40.742188 49.738281 C 40.957031 50 41.148438 50.246094 41.53125 50.183594 C 41.707031 50.164062 41.792969 50.332031 41.75 50.515625 C 41.722656 50.648438 41.65625 50.773438 41.617188 50.90625 C 41.589844 51.015625 41.542969 51.15625 41.582031 51.238281 C 41.78125 51.621094 42 51.996094 42.222656 52.363281 C 42.25 52.40625 42.355469 52.398438 42.480469 52.429688 C 42.480469 52.273438 42.457031 52.164062 42.484375 52.058594 C 42.539062 51.882812 42.566406 51.613281 42.691406 51.554688 C 42.949219 51.429688 42.941406 51.230469 42.980469 51.023438 C 43.132812 50.207031 42.808594 49.574219 42.222656 49.039062 C 41.90625 48.75 41.925781 48.332031 41.914062 47.964844 C 41.90625 47.78125 42.066406 47.554688 42.355469 47.582031 C 42.757812 47.625 43.167969 47.640625 43.574219 47.707031 C 43.875 47.75 44.15625 47.757812 44.414062 47.558594 C 44.515625 47.488281 44.664062 47.441406 44.792969 47.441406 C 45.367188 47.457031 45.882812 47.308594 46.308594 46.914062 C 46.375 46.847656 46.472656 46.804688 46.589844 46.730469 C 46.609375 46.847656 46.632812 46.914062 46.632812 46.980469 C 46.648438 48.023438 46.664062 49.066406 46.667969 50.113281 C 46.675781 50.683594 46.367188 51.164062 46.140625 51.65625 C 46.097656 51.757812 45.917969 51.808594 45.792969 51.863281 C 44.859375 52.214844 44.050781 52.757812 43.347656 53.464844 C 43.066406 53.746094 42.757812 53.996094 42.441406 54.222656 C 42.015625 54.515625 41.949219 54.90625 42.066406 55.363281 C 42.214844 55.933594 42.417969 56.496094 42.523438 57.074219 C 42.589844 57.449219 42.539062 57.855469 42.492188 58.238281 C 42.480469 58.347656 42.347656 58.472656 42.242188 58.539062 C 41.875 58.765625 41.5 58.980469 41.125 59.191406 C 40.855469 59.363281 40.597656 59.523438 40.339844 59.671875 Z M 40.339844 59.671875 " fill-opacity="1" fill-rule="nonzero"/><path fill="#01943e" d="M 31.964844 48.765625 C 32.492188 48.765625 32.941406 48.765625 33.449219 48.765625 C 33.449219 48.207031 33.449219 47.683594 33.449219 47.164062 C 33.683594 47.371094 33.855469 47.582031 34.183594 47.441406 C 34.234375 47.421875 34.339844 47.53125 34.425781 47.558594 C 34.734375 47.679688 35.042969 47.832031 35.367188 47.898438 C 35.550781 47.933594 35.765625 47.847656 35.914062 47.824219 C 36.164062 47.988281 36.398438 48.148438 36.640625 48.289062 C 36.980469 48.496094 37.300781 48.714844 37.324219 49.140625 C 37.640625 49.140625 37.890625 49.140625 38.167969 49.140625 C 38.167969 48.765625 38.167969 48.382812 38.167969 47.972656 C 37.78125 47.933594 37.375 47.980469 37.105469 47.554688 C 37.355469 46.980469 37.265625 46.339844 37.148438 45.699219 C 37.125 45.566406 37.207031 45.398438 37.273438 45.265625 C 37.449219 44.929688 37.765625 44.855469 38.117188 44.832031 C 38.417969 44.808594 38.667969 44.664062 38.992188 44.933594 C 39.339844 45.238281 39.808594 45.40625 40.234375 45.605469 C 40.648438 45.789062 40.898438 46.074219 40.972656 46.558594 C 40.632812 46.808594 40.667969 47.179688 40.765625 47.554688 C 40.847656 47.875 40.855469 48.132812 40.582031 48.449219 C 40.355469 48.707031 40.15625 49.179688 40.574219 49.558594 C 39.800781 49.816406 39.074219 50.058594 38.332031 50.308594 C 38.332031 50.5 38.332031 50.671875 38.332031 50.847656 C 38.273438 50.875 38.222656 50.898438 38.167969 50.921875 C 37.898438 51.023438 37.589844 51.074219 37.355469 51.230469 C 37.164062 51.355469 37.074219 51.625 36.90625 51.789062 C 36.734375 51.949219 36.449219 52.023438 36.347656 52.207031 C 35.957031 52.914062 35.355469 52.933594 34.683594 52.816406 C 34.605469 52.804688 34.484375 52.824219 34.457031 52.78125 C 34.164062 52.347656 33.742188 52.558594 33.382812 52.574219 C 33.058594 52.589844 32.867188 52.472656 32.640625 52.238281 C 32.097656 51.671875 31.875 51.039062 31.964844 50.257812 C 32.007812 49.796875 31.964844 49.324219 31.964844 48.765625 Z M 31.964844 48.765625 " fill-opacity="1" fill-rule="nonzero"/><path fill="#01943e" d="M 51.75 58.972656 C 51.234375 59.183594 50.824219 59.363281 50.339844 59.566406 C 50.167969 59.480469 49.925781 59.347656 49.675781 59.238281 C 49.230469 59.046875 49.066406 58.679688 49.109375 58.238281 C 49.15625 57.832031 49.105469 57.488281 48.882812 57.121094 C 48.617188 56.671875 48.847656 56.207031 49.058594 55.789062 C 49.15625 55.597656 49.289062 55.414062 49.449219 55.265625 C 49.75 54.980469 49.730469 54.648438 49.667969 54.289062 C 49.589844 53.804688 49.492188 53.316406 49.464844 52.832031 C 49.414062 52.125 49.773438 51.546875 50.433594 51.347656 C 51.757812 50.949219 52.550781 49.964844 53.273438 48.890625 C 53.441406 48.632812 53.523438 48.316406 53.664062 47.988281 C 54.105469 48.582031 54.375 49.171875 54.375 49.871094 C 54.375 50.097656 54.414062 50.347656 54.507812 50.546875 C 54.65625 50.839844 54.605469 51.066406 54.40625 51.304688 C 54.257812 51.199219 54.125 51.105469 53.949219 50.988281 C 53.917969 51.113281 53.867188 51.191406 53.890625 51.25 C 54.132812 51.933594 53.90625 52.597656 53.714844 53.214844 C 53.082031 55.164062 52.398438 57.089844 51.75 58.972656 Z M 51.75 58.972656 " fill-opacity="1" fill-rule="nonzero"/><g clip-path="url(#6e3331b132)"><path fill="#01943e" d="M 52.941406 30.730469 C 52.632812 30.632812 52.414062 30.566406 52.191406 30.507812 C 51.664062 30.355469 51.140625 30.164062 50.597656 30.066406 C 49.667969 29.90625 49.148438 29.257812 48.632812 28.53125 C 48.757812 28.355469 48.875 28.183594 49.007812 28 C 49.132812 28.066406 49.230469 28.097656 49.292969 28.164062 C 49.75 28.574219 50.230469 28.808594 50.824219 28.429688 C 50.867188 28.398438 50.949219 28.375 50.992188 28.398438 C 51.5 28.597656 51.882812 28.308594 52.316406 28.132812 C 52.667969 27.988281 53.089844 27.980469 53.480469 27.921875 C 53.980469 27.847656 54.5 27.890625 54.917969 27.496094 C 55 27.414062 55.199219 27.464844 55.382812 27.449219 C 55.40625 28.058594 55.433594 28.589844 55.167969 29.121094 C 54.609375 30.230469 54.132812 31.375 53.558594 32.472656 C 53.273438 33.023438 52.839844 33.5 52.472656 34.015625 C 52.390625 34.125 52.292969 34.230469 52.222656 34.347656 C 51.773438 35.039062 51.191406 35.566406 50.472656 35.980469 C 50.105469 36.183594 49.773438 36.496094 49.480469 36.804688 C 48.855469 37.457031 48.265625 38.148438 47.664062 38.832031 C 47.273438 38.488281 47.191406 38.066406 47.207031 37.589844 C 47.234375 36.941406 47.222656 36.289062 47.214844 35.632812 C 47.199219 34.933594 47.597656 34.515625 48.148438 34.199219 C 48.40625 34.054688 48.691406 33.949219 48.917969 33.773438 C 49.257812 33.507812 49.625 33.429688 50.03125 33.523438 C 50.292969 33.589844 50.480469 33.507812 50.648438 33.308594 C 51.375 32.464844 52.117188 31.640625 52.941406 30.730469 Z M 52.941406 30.730469 " fill-opacity="1" fill-rule="nonzero"/></g><path fill="#01943e" d="M 32.597656 59.097656 C 32.292969 59.980469 31.882812 60.632812 30.816406 60.488281 C 30.839844 60.332031 30.832031 60.199219 30.875 60.082031 C 31.015625 59.65625 30.875 59.296875 30.589844 59.015625 C 30.390625 58.824219 30.339844 58.632812 30.347656 58.390625 C 30.355469 57.804688 30.347656 57.214844 30.347656 56.605469 C 30.597656 56.582031 30.808594 56.566406 31.042969 56.546875 C 31.167969 56.03125 31.089844 55.523438 31.105469 55.015625 C 31.117188 54.507812 31.105469 53.996094 31.105469 53.449219 C 31.667969 53.347656 32.207031 53.246094 32.773438 53.140625 C 32.875 53.265625 32.984375 53.398438 33.109375 53.546875 C 33.480469 53.347656 33.75 52.957031 34.257812 53.058594 C 34.339844 53.179688 34.449219 53.308594 34.53125 53.464844 C 34.808594 53.980469 35.183594 54.375 35.664062 54.714844 C 35.964844 54.933594 36.292969 55.207031 36.332031 55.65625 C 36.355469 55.890625 36.542969 55.957031 36.722656 56.054688 C 36.980469 56.183594 37.222656 56.347656 37.433594 56.472656 C 37.441406 56.789062 37.300781 56.863281 37.097656 56.839844 C 36.808594 56.808594 36.609375 56.941406 36.425781 57.140625 C 36.332031 57.246094 36.234375 57.347656 36.125 57.429688 C 35.789062 57.671875 35.566406 57.980469 35.566406 58.382812 C 35.292969 58.515625 35 58.589844 34.824219 58.765625 C 34.648438 58.949219 34.582031 59.246094 34.472656 59.488281 C 34.050781 59.566406 33.675781 59.574219 33.308594 59.347656 C 33.132812 59.230469 32.882812 59.191406 32.597656 59.097656 Z M 32.597656 59.097656 " fill-opacity="1" fill-rule="nonzero"/><path fill="#01943e" d="M 35.984375 32.988281 C 35.640625 32.949219 35.300781 32.898438 34.957031 32.882812 C 34.792969 32.875 34.605469 32.890625 34.464844 32.964844 C 33.867188 33.296875 33.25 33.488281 32.542969 33.371094 C 32.390625 33.554688 32.230469 33.746094 32.042969 33.957031 C 31.289062 33.765625 30.472656 33.738281 29.949219 32.972656 C 29.515625 33.433594 28.816406 33.574219 28.914062 34.398438 C 28.730469 34.398438 28.582031 34.40625 28.433594 34.398438 C 28.28125 34.382812 28.125 34.332031 27.972656 34.339844 C 27.492188 34.371094 27.40625 34.464844 27.324219 34.933594 C 27.308594 35.03125 27.300781 35.125 27.289062 35.199219 C 27.042969 34.980469 26.800781 34.75 26.558594 34.53125 C 26.515625 34.496094 26.457031 34.457031 26.433594 34.40625 C 26.257812 34 26.058594 33.597656 25.933594 33.179688 C 25.808594 32.75 25.855469 32.363281 26.175781 31.972656 C 26.734375 31.289062 26.707031 31.265625 27.28125 30.988281 C 27.539062 31.238281 27.847656 31.207031 28.167969 31.058594 C 28.347656 30.980469 28.542969 30.933594 28.730469 30.875 C 29.265625 30.691406 29.417969 30.507812 29.507812 29.90625 C 29.617188 29.890625 29.734375 29.839844 29.847656 29.855469 C 30.589844 29.949219 31.039062 29.421875 31.53125 29.03125 C 31.617188 28.957031 31.609375 28.773438 31.683594 28.671875 C 31.792969 28.523438 31.925781 28.355469 32.089844 28.289062 C 32.292969 28.199219 32.441406 28.355469 32.574219 28.523438 C 32.855469 28.875 33.082031 29.222656 32.914062 29.699219 C 32.875 29.804688 32.90625 29.929688 32.90625 30.054688 C 32.980469 30.105469 33.039062 30.164062 33.109375 30.183594 C 33.855469 30.441406 34.347656 30.996094 34.800781 31.597656 C 35.167969 32.082031 35.574219 32.539062 35.964844 33.007812 Z M 35.984375 32.988281 " fill-opacity="1" fill-rule="nonzero"/><path fill="#01943e" d="M 45.742188 41.523438 C 45.457031 41.304688 45.199219 41.121094 44.957031 40.921875 C 44.75 40.75 44.480469 40.648438 44.523438 40.28125 C 44.539062 40.183594 44.347656 40.039062 44.222656 39.964844 C 43.449219 39.488281 42.675781 39.023438 41.890625 38.566406 C 41.65625 38.433594 41.566406 38.28125 41.558594 38.007812 C 41.542969 37.558594 41.609375 37.148438 41.914062 36.796875 C 42.015625 36.679688 42.089844 36.539062 42.175781 36.398438 C 42.433594 36 42.425781 35.582031 42.230469 35.171875 C 42.039062 34.78125 41.824219 34.40625 41.597656 33.972656 C 41.734375 33.882812 41.855469 33.738281 41.980469 33.738281 C 42.390625 33.722656 42.792969 33.757812 43.207031 33.773438 C 43.300781 33.78125 43.40625 33.824219 43.492188 33.816406 C 43.847656 33.789062 44.117188 33.933594 44.316406 34.191406 C 44.691406 34.679688 45.257812 34.625 45.765625 34.75 C 45.839844 34.773438 45.949219 34.699219 46.03125 34.648438 C 46.164062 34.566406 46.300781 34.480469 46.414062 34.375 C 46.757812 34.054688 47.117188 33.972656 47.53125 34.265625 C 47.515625 34.308594 47.515625 34.382812 47.480469 34.421875 C 47.023438 34.855469 46.949219 35.390625 46.984375 35.988281 C 47.023438 36.554688 47.007812 37.132812 46.984375 37.699219 C 46.972656 38.089844 47.039062 38.433594 47.316406 38.730469 C 47.382812 38.796875 47.414062 38.898438 47.480469 39.023438 C 46.589844 39.625 46.289062 40.625 45.742188 41.523438 Z M 45.742188 41.523438 " fill-opacity="1" fill-rule="nonzero"/><path fill="#01943e" d="M 10.582031 10.441406 C 10.617188 10.964844 10.605469 10.941406 10.183594 11.304688 C 9.65625 11.75 9.074219 12.023438 8.382812 12.082031 C 7.714844 12.140625 7.28125 12.648438 6.765625 13 C 6.691406 13.054688 6.675781 13.207031 6.664062 13.316406 C 6.648438 13.472656 6.65625 13.625 6.65625 13.832031 C 5.605469 13.832031 4.566406 13.832031 3.65625 13.832031 C 3.933594 13.679688 4.316406 13.441406 4.714844 13.238281 C 5.308594 12.933594 5.523438 12.339844 5.832031 11.824219 C 5.90625 11.691406 5.855469 11.488281 5.847656 11.308594 C 5.816406 10.480469 6.007812 9.722656 6.816406 9.339844 C 7.714844 8.914062 8.367188 8.332031 8.691406 7.363281 C 8.859375 6.855469 9.148438 6.804688 9.597656 7.140625 C 9.882812 7.355469 10.175781 7.441406 10.53125 7.398438 C 10.683594 7.375 10.847656 7.382812 11 7.40625 C 11.898438 7.523438 11.914062 7.546875 12.164062 8.429688 C 12.273438 8.816406 12.316406 9.238281 12.664062 9.539062 C 12.847656 9.699219 12.742188 9.914062 12.5 9.957031 C 12.382812 9.980469 12.265625 9.964844 12.148438 9.964844 C 11.757812 9.964844 11.359375 9.914062 11.058594 10.273438 C 10.972656 10.398438 10.75 10.390625 10.582031 10.441406 Z M 10.582031 10.441406 " fill-opacity="1" fill-rule="nonzero"/><path fill="#01943e" d="M 26.007812 27.097656 C 26.042969 27.304688 26.109375 27.5 26.109375 27.707031 C 26.117188 28.082031 26.074219 28.457031 26.433594 28.824219 C 26.164062 28.847656 25.980469 28.882812 25.800781 28.875 C 25.441406 28.863281 25.242188 29.023438 25.214844 29.40625 C 25.675781 29.933594 26.367188 30.316406 26.480469 31.222656 C 26.332031 31.429688 26.125 31.714844 25.917969 32 C 25.609375 32.421875 25.574219 33.15625 25.855469 33.605469 C 25.984375 33.816406 26.117188 34.015625 26.164062 34.289062 C 26.199219 34.488281 26.414062 34.679688 26.582031 34.824219 C 26.898438 35.089844 27.058594 35.390625 26.914062 35.855469 C 26.117188 35.746094 25.316406 35.574219 24.507812 35.539062 C 23.691406 35.5 22.867188 35.597656 22.074219 35.632812 C 22.03125 35.574219 21.980469 35.546875 21.984375 35.515625 C 22.058594 34.898438 21.847656 34.40625 21.359375 34.015625 C 21.28125 33.949219 21.199219 33.816406 21.207031 33.722656 C 21.230469 33.390625 21.199219 33 21.355469 32.738281 C 21.574219 32.363281 21.933594 32.054688 22.265625 31.757812 C 22.425781 31.613281 22.609375 31.714844 22.757812 31.90625 C 23.074219 32.316406 23.230469 32.289062 23.433594 31.824219 C 23.558594 31.539062 23.667969 31.246094 23.792969 30.949219 C 23.925781 30.632812 24 30.28125 24.390625 30.121094 C 24.5 30.074219 24.558594 29.871094 24.625 29.730469 C 24.800781 29.332031 24.972656 28.933594 25.132812 28.53125 C 25.257812 28.214844 25.367188 27.914062 25.742188 27.796875 C 25.839844 27.765625 25.914062 27.597656 25.957031 27.480469 C 26 27.355469 26 27.207031 26.023438 27.074219 C 26.023438 27.082031 26.007812 27.097656 26.007812 27.097656 Z M 26.007812 27.097656 " fill-opacity="1" fill-rule="nonzero"/><path fill="#01943e" d="M 40.441406 52.066406 C 40.53125 52.605469 40.582031 53.105469 40.398438 53.613281 C 40.332031 53.796875 40.375 54.046875 40.433594 54.246094 C 40.53125 54.566406 40.480469 54.839844 40.355469 55.148438 C 40.105469 55.773438 39.683594 56.25 39.265625 56.683594 C 38.214844 56.746094 37.414062 56.246094 36.589844 55.699219 C 36.558594 55.171875 36.199219 54.78125 35.757812 54.515625 C 35.183594 54.164062 34.875 53.640625 34.53125 53.039062 C 34.882812 53.066406 35.167969 53.082031 35.464844 53.121094 C 35.699219 53.148438 35.882812 53.082031 36.03125 52.890625 C 36.347656 52.488281 36.675781 52.097656 37.167969 51.890625 C 37.234375 51.863281 37.332031 51.804688 37.339844 51.746094 C 37.417969 51.113281 37.949219 51.25 38.367188 51.113281 C 38.390625 51.433594 38.582031 51.53125 38.847656 51.464844 C 39.164062 51.382812 39.417969 51.5 39.675781 51.664062 C 39.917969 51.808594 40.167969 51.929688 40.441406 52.066406 Z M 40.441406 52.066406 " fill-opacity="1" fill-rule="nonzero"/><path fill="#01943e" d="M 8.148438 32.757812 C 7.832031 32.496094 7.542969 32.257812 7.324219 32.074219 C 7.199219 31.53125 7.75 31.183594 7.484375 30.707031 C 7.867188 30.515625 7.90625 30.421875 7.789062 29.964844 C 7.722656 29.683594 7.515625 29.429688 7.664062 29.125 C 8.058594 29.007812 8.449219 28.898438 8.90625 28.765625 C 8.933594 28.808594 8.992188 28.90625 9.039062 28.988281 C 9.597656 28.824219 9.597656 28.824219 10.28125 29.449219 C 10.390625 29.421875 10.515625 29.382812 10.648438 29.339844 C 11.082031 29.199219 11.359375 29.265625 11.605469 29.648438 C 11.847656 30.039062 12.03125 30.472656 11.730469 30.914062 C 11.316406 31.515625 11.230469 32.121094 11.550781 32.789062 C 11.625 32.941406 11.632812 33.125 11.683594 33.339844 C 11.050781 33.332031 10.457031 33.121094 9.855469 33.308594 C 9.292969 33.488281 8.714844 33.613281 8.089844 33.773438 C 8.105469 33.464844 8.125 33.121094 8.148438 32.757812 Z M 8.148438 32.757812 " fill-opacity="1" fill-rule="nonzero"/><path fill="#01943e" d="M 25.933594 41.640625 C 25.890625 41.488281 25.859375 41.371094 25.832031 41.238281 C 25.472656 41.15625 25.175781 41.257812 24.917969 41.574219 C 24.757812 41.457031 24.609375 41.339844 24.441406 41.207031 C 24.183594 41.40625 23.941406 41.597656 23.675781 41.796875 C 23.5 41.496094 23.339844 41.207031 23.140625 40.871094 C 23.367188 40.796875 23.582031 40.730469 23.839844 40.648438 C 23.75 40.375 23.664062 40.105469 23.558594 39.808594 C 23.839844 39.648438 24.347656 39.898438 24.359375 39.363281 C 24.765625 39.53125 25.148438 39.683594 25.558594 39.863281 C 25.773438 39.308594 25.816406 38.707031 25.925781 38.191406 C 25.734375 37.898438 25.464844 37.671875 25.449219 37.429688 C 25.433594 37.207031 25.699219 36.964844 25.847656 36.730469 C 25.582031 36.421875 25.347656 36.097656 24.816406 36.332031 C 24.855469 36.113281 24.875 35.964844 24.90625 35.789062 C 25.648438 35.90625 26.359375 36.015625 27.089844 36.132812 C 27.234375 35.730469 27.398438 35.289062 27.558594 34.839844 C 27.640625 34.613281 27.867188 34.5 28.191406 34.546875 C 28.308594 34.558594 28.417969 34.621094 28.53125 34.640625 C 28.640625 34.65625 28.757812 34.640625 28.925781 34.640625 C 28.867188 34.804688 28.855469 34.929688 28.792969 35.007812 C 28.457031 35.457031 28.375 35.972656 28.359375 36.515625 C 28.355469 36.949219 28.308594 37.382812 28.242188 37.808594 C 28.222656 37.972656 28.117188 38.132812 28.015625 38.265625 C 27.789062 38.539062 27.539062 38.796875 27.289062 39.039062 C 27.105469 39.214844 26.980469 39.414062 27.03125 39.664062 C 27.164062 40.308594 26.855469 40.75 26.398438 41.148438 C 26.257812 41.289062 26.132812 41.441406 25.933594 41.640625 Z M 25.933594 41.640625 " fill-opacity="1" fill-rule="nonzero"/><path fill="#01943e" d="M 6.65625 14.171875 C 6.65625 14.507812 6.65625 14.855469 6.65625 15.230469 C 5.75 15.28125 4.898438 15.324219 3.992188 15.371094 C 3.992188 16.125 3.992188 16.824219 3.992188 17.539062 C 3.714844 17.671875 3.464844 17.78125 3.175781 17.914062 C 3.175781 18.375 3.175781 18.839844 3.175781 19.355469 C 2.125 19.355469 1.132812 19.355469 0.0898438 19.355469 C 0.109375 19.273438 0.125 19.183594 0.164062 19.105469 C 0.808594 17.863281 1.441406 16.613281 2.109375 15.390625 C 2.324219 15 2.640625 14.65625 2.933594 14.308594 C 3.023438 14.207031 3.199219 14.132812 3.339844 14.125 C 4.40625 14.105469 5.472656 14.113281 6.539062 14.113281 C 6.566406 14.121094 6.605469 14.148438 6.65625 14.171875 Z M 6.65625 14.171875 " fill-opacity="1" fill-rule="nonzero"/><path fill="#01943e" d="M 11.730469 28.222656 C 11.691406 28.558594 11.664062 28.863281 11.625 29.230469 C 11.359375 29.140625 11.167969 29.015625 10.980469 29.023438 C 10.773438 29.03125 10.566406 29.148438 10.355469 29.222656 C 10.132812 29.023438 9.917969 28.832031 9.667969 28.613281 C 9.714844 28.371094 9.75 28.097656 9.808594 27.832031 C 9.832031 27.722656 9.875 27.539062 9.949219 27.523438 C 10.5 27.390625 10.5 26.855469 10.773438 26.449219 C 10.875 26.472656 10.992188 26.507812 11.097656 26.53125 C 11.914062 25.714844 12.75 24.980469 14 24.773438 C 13.984375 25.265625 14.222656 25.554688 14.484375 25.847656 C 14.640625 26.015625 14.722656 26.265625 14.800781 26.496094 C 15.109375 26.804688 15.808594 26.765625 15.640625 27.523438 C 15.390625 27.679688 15.132812 27.847656 14.855469 27.996094 C 14.742188 28.054688 14.582031 28.089844 14.472656 28.046875 C 14.191406 27.949219 13.933594 28 13.664062 28.03125 C 13.039062 28.113281 12.414062 28.164062 11.730469 28.222656 Z M 11.730469 28.222656 " fill-opacity="1" fill-rule="nonzero"/><path fill="#01943e" d="M 25.480469 39.363281 C 25.007812 39.472656 24.617188 39.324219 24.265625 38.972656 C 24.167969 39.183594 24.109375 39.324219 24.039062 39.488281 C 23.792969 39.515625 23.550781 39.546875 23.242188 39.574219 C 23.339844 39.882812 23.417969 40.140625 23.515625 40.433594 C 23.339844 40.53125 23.164062 40.632812 22.957031 40.746094 C 22.25 40 21.464844 39.355469 21.300781 38.355469 C 21.484375 37.863281 21.65625 37.40625 21.859375 36.871094 C 22.289062 36.871094 22.792969 36.871094 23.355469 36.871094 C 23.355469 36.472656 23.355469 36.140625 23.355469 35.78125 C 23.792969 35.78125 24.175781 35.78125 24.605469 35.78125 C 24.605469 36.015625 24.605469 36.257812 24.605469 36.566406 C 24.816406 36.539062 24.984375 36.472656 25.148438 36.5 C 25.292969 36.523438 25.425781 36.640625 25.597656 36.738281 C 25.507812 36.875 25.457031 36.957031 25.398438 37.039062 C 25.089844 37.488281 25.074219 37.574219 25.449219 37.941406 C 25.648438 38.132812 25.691406 38.332031 25.640625 38.574219 C 25.589844 38.832031 25.539062 39.097656 25.480469 39.363281 Z M 25.480469 39.363281 " fill-opacity="1" fill-rule="nonzero"/><path fill="#01943e" d="M 6.617188 27.246094 C 6.867188 27.738281 7.097656 28.191406 7.332031 28.648438 C 7.367188 28.722656 7.441406 28.804688 7.425781 28.863281 C 7.289062 29.382812 7.582031 29.855469 7.617188 30.363281 C 7.457031 30.40625 7.332031 30.441406 7.183594 30.488281 C 7.234375 30.707031 7.289062 30.90625 7.359375 31.207031 C 7.023438 31.03125 6.792969 31.082031 6.609375 31.523438 C 6.5 31.066406 6.433594 30.773438 6.347656 30.414062 C 6.125 30.429688 5.898438 30.441406 5.675781 30.457031 C 5.617188 30.25 5.597656 29.996094 5.480469 29.78125 C 5.191406 29.25 4.691406 29.171875 4.15625 29.257812 C 4.023438 29.28125 3.890625 29.40625 3.78125 29.507812 C 3.617188 29.671875 3.480469 29.855469 3.332031 30.023438 C 2.839844 29.464844 2.390625 28.957031 1.933594 28.441406 C 2.042969 27.882812 2.523438 27.921875 2.972656 27.875 C 2.984375 27.582031 3 27.308594 3.015625 27.046875 C 3.066406 27.03125 3.117188 26.996094 3.132812 27.007812 C 3.441406 27.246094 3.789062 27.316406 4.175781 27.28125 C 4.425781 27.257812 4.691406 27.296875 4.941406 27.355469 C 5.765625 27.523438 5.898438 27.53125 6.617188 27.246094 Z M 6.617188 27.246094 " fill-opacity="1" fill-rule="nonzero"/><path fill="#01943e" d="M 11.957031 33.390625 C 11.839844 32.957031 11.742188 32.558594 11.605469 32.171875 C 11.53125 31.941406 11.53125 31.75 11.648438 31.554688 C 11.730469 31.421875 11.78125 31.265625 11.875 31.140625 C 12.222656 30.664062 12.105469 30.171875 11.890625 29.691406 C 11.800781 29.5 11.757812 29.355469 11.832031 29.140625 C 11.914062 28.929688 11.917969 28.683594 11.964844 28.429688 C 12.574219 28.375 13.191406 28.324219 13.855469 28.273438 C 13.917969 28.507812 13.992188 28.730469 14.050781 28.957031 C 14.15625 29.355469 14.265625 29.75 14.347656 30.15625 C 14.398438 30.40625 14.398438 30.664062 14.40625 30.914062 C 14.414062 31.789062 14.40625 31.789062 14.941406 32.507812 C 14.765625 32.589844 14.605469 32.683594 14.425781 32.75 C 13.875 32.972656 13.324219 33.171875 12.78125 33.40625 C 12.507812 33.515625 12.257812 33.53125 11.957031 33.390625 Z M 11.957031 33.390625 " fill-opacity="1" fill-rule="nonzero"/><path fill="#01943e" d="M 41.300781 38.304688 C 40.222656 38.464844 39.15625 38.089844 38.109375 38.683594 C 37.925781 37.382812 38.507812 36.507812 39.507812 35.773438 C 38.898438 35.488281 39 35.046875 39.082031 34.566406 C 39.515625 34.546875 39.925781 34.539062 40.332031 34.496094 C 40.714844 34.457031 41.089844 34.382812 41.53125 34.316406 C 41.667969 34.574219 41.875 34.914062 42.042969 35.265625 C 42.214844 35.625 42.207031 35.988281 41.980469 36.332031 C 41.925781 36.414062 41.875 36.5 41.808594 36.574219 C 41.464844 37.007812 41.257812 37.480469 41.347656 38.046875 C 41.347656 38.125 41.316406 38.199219 41.300781 38.304688 Z M 41.300781 38.304688 " fill-opacity="1" fill-rule="nonzero"/><path fill="#01943e" d="M 0.40625 27.183594 C 0.53125 26.433594 0.523438 25.789062 0 25.332031 C 0.265625 24.808594 0.5 24.332031 0.789062 23.757812 C 1.199219 23.746094 1.722656 23.730469 2.242188 23.714844 C 2.609375 24.121094 3.214844 24.199219 3.523438 24.707031 C 3.792969 25.148438 4.28125 25.480469 4.074219 26.113281 C 4.273438 26.390625 4.675781 26.566406 4.507812 27.054688 C 4.097656 26.980469 3.632812 27.191406 3.25 26.816406 C 3.191406 26.757812 3.066406 26.757812 2.972656 26.765625 C 2.367188 26.804688 1.75 26.738281 1.183594 27.046875 C 0.984375 27.140625 0.730469 27.125 0.40625 27.183594 Z M 0.40625 27.183594 " fill-opacity="1" fill-rule="nonzero"/><g clip-path="url(#1b1c4ad312)"><path fill="#01943e" d="M 20.089844 8.429688 C 20.183594 8.316406 20.28125 8.191406 20.398438 8.089844 C 20.582031 7.921875 20.648438 7.707031 20.667969 7.464844 C 20.730469 6.921875 20.808594 6.375 20.882812 5.832031 C 21.214844 5.722656 21.507812 5.632812 21.867188 5.515625 C 21.957031 5.648438 22.050781 5.804688 22.089844 5.855469 C 22.449219 5.964844 22.625 5.449219 22.917969 5.832031 C 22.664062 6.015625 22.359375 6.164062 22.367188 6.574219 C 22.433594 6.648438 22.53125 6.746094 22.617188 6.847656 C 22.914062 7.183594 22.898438 7.308594 22.550781 7.625 C 22.339844 7.816406 22.148438 8.03125 21.917969 8.257812 C 22.339844 8.582031 22.699219 8.855469 23.039062 9.121094 C 23.15625 9.515625 23.023438 9.773438 22.667969 9.949219 C 22.441406 10.066406 22.242188 10.230469 22.023438 10.371094 C 21.964844 10.746094 22.265625 11.214844 21.675781 11.464844 C 21.574219 11.074219 21.457031 10.714844 21.390625 10.332031 C 21.347656 10.074219 21.230469 9.914062 21.042969 9.75 C 20.375 9.148438 20.375 9.148438 20.089844 8.429688 Z M 20.089844 8.429688 " fill-opacity="1" fill-rule="nonzero"/></g><path fill="#01943e" d="M 45.347656 22.347656 C 45.433594 22.65625 45.550781 22.929688 45.589844 23.214844 C 45.664062 23.921875 46.074219 24.371094 46.667969 24.648438 C 47.558594 25.058594 48.058594 25.839844 48.640625 26.554688 C 48.664062 26.574219 48.648438 26.625 48.648438 26.671875 C 48.441406 26.855469 48.292969 26.722656 48.15625 26.566406 C 47.847656 26.230469 47.558594 25.882812 47.234375 25.566406 C 46.808594 25.15625 46.308594 24.875 45.699219 25.054688 C 45.347656 25.148438 45.105469 24.972656 44.824219 24.78125 C 44.699219 24.957031 44.582031 25.121094 44.457031 25.304688 C 44.230469 24.972656 43.984375 25.230469 43.683594 25.296875 C 43.609375 24.539062 43.941406 23.871094 43.984375 23.289062 C 44.464844 22.949219 44.859375 22.679688 45.347656 22.347656 Z M 45.347656 22.347656 " fill-opacity="1" fill-rule="nonzero"/><path fill="#01943e" d="M 14.765625 28.324219 C 14.984375 28.179688 15.140625 28.066406 15.308594 27.964844 C 15.566406 27.808594 15.890625 27.757812 15.964844 27.363281 C 15.992188 27.191406 16.214844 27.132812 16.40625 27.257812 C 16.765625 27.496094 16.972656 28.023438 16.824219 28.449219 C 16.675781 28.855469 16.539062 29.273438 16.324219 29.648438 C 16.058594 30.105469 16.023438 30.566406 16.097656 31.066406 C 16.148438 31.414062 16.164062 31.765625 16.199219 32.207031 C 15.972656 32.164062 15.792969 32.171875 15.65625 32.097656 C 15.457031 32 15.449219 31.796875 15.441406 31.582031 C 15.414062 30.949219 15.375 30.324219 15.308594 29.691406 C 15.273438 29.371094 15.25 29.03125 14.949219 28.789062 C 14.855469 28.714844 14.839844 28.515625 14.765625 28.324219 Z M 14.765625 28.324219 " fill-opacity="1" fill-rule="nonzero"/><path fill="#01943e" d="M 42.175781 51.847656 C 42.042969 51.613281 41.914062 51.390625 41.773438 51.148438 C 41.859375 50.773438 42.222656 50.371094 41.734375 49.957031 C 41.597656 49.957031 41.425781 49.957031 41.230469 49.957031 C 41.015625 49.707031 40.800781 49.449219 40.539062 49.140625 C 40.675781 48.863281 40.832031 48.566406 40.980469 48.273438 C 41.007812 48.28125 41.039062 48.296875 41.074219 48.304688 C 41.050781 48.054688 41.066406 47.789062 41 47.546875 C 40.898438 47.171875 40.914062 46.847656 41.289062 46.605469 C 41.199219 46.390625 41.109375 46.199219 41.03125 46 C 41.550781 45.875 41.632812 45.914062 41.742188 46.363281 C 41.824219 46.707031 41.882812 47.054688 41.964844 47.441406 C 41.90625 47.539062 41.808594 47.671875 41.757812 47.808594 C 41.707031 47.949219 41.683594 48.105469 41.699219 48.25 C 41.714844 48.429688 41.78125 48.589844 41.808594 48.765625 C 41.847656 48.988281 41.90625 49.132812 42.125 49.273438 C 42.65625 49.613281 42.949219 50.53125 42.730469 51.113281 C 42.625 51.371094 42.382812 51.574219 42.175781 51.847656 Z M 42.175781 51.847656 " fill-opacity="1" fill-rule="nonzero"/><path fill="#01943e" d="M 4.832031 32.023438 C 5.082031 31.632812 5.292969 31.28125 5.515625 30.941406 C 5.664062 30.707031 5.867188 30.597656 6.183594 30.65625 C 6.222656 31.054688 6.257812 31.449219 6.664062 31.714844 C 6.773438 31.597656 6.882812 31.480469 7.015625 31.347656 C 7.050781 31.390625 7.125 31.441406 7.117188 31.472656 C 6.925781 32 7.175781 32.339844 7.609375 32.589844 C 7.875 32.746094 7.941406 32.941406 7.890625 33.230469 C 7.855469 33.457031 7.855469 33.691406 7.832031 33.957031 C 7.40625 33.921875 7.148438 33.597656 6.832031 33.398438 C 6.480469 33.179688 6.148438 32.933594 5.808594 32.699219 C 5.480469 32.480469 5.164062 32.25 4.832031 32.023438 Z M 4.832031 32.023438 " fill-opacity="1" fill-rule="nonzero"/><path fill="#01943e" d="M 4.683594 31.847656 C 3.875 31.515625 3.523438 30.964844 3.398438 30.273438 C 3.53125 30.132812 3.664062 30 3.789062 29.847656 C 4.242188 29.289062 4.875 29.289062 5.28125 29.871094 C 5.492188 30.183594 5.464844 30.554688 5.308594 30.871094 C 5.132812 31.214844 4.890625 31.523438 4.683594 31.847656 Z M 4.683594 31.847656 " fill-opacity="1" fill-rule="nonzero"/><path fill="#01943e" d="M 15.40625 32.324219 C 15.355469 32.339844 15.25 32.414062 15.222656 32.390625 C 14.949219 32.171875 14.597656 31.941406 14.640625 31.574219 C 14.757812 30.605469 14.355469 29.722656 14.257812 28.789062 C 14.242188 28.632812 14.175781 28.488281 14.132812 28.316406 C 14.367188 28.222656 14.539062 28.257812 14.589844 28.507812 C 14.632812 28.730469 14.75 28.882812 14.882812 29.066406 C 15.023438 29.257812 15.082031 29.539062 15.105469 29.78125 C 15.167969 30.40625 15.183594 31.039062 15.242188 31.664062 C 15.25 31.855469 15.332031 32.054688 15.40625 32.324219 Z M 15.40625 32.324219 " fill-opacity="1" fill-rule="nonzero"/><path fill="#01943e" d="M 2.800781 27.691406 C 2.273438 27.605469 1.992188 27.871094 1.730469 28.257812 C 1.382812 27.972656 1.066406 27.699219 0.707031 27.398438 C 1.40625 27.183594 2.015625 26.914062 2.730469 27.023438 C 2.75 27.222656 2.773438 27.414062 2.800781 27.691406 Z M 2.800781 27.691406 " fill-opacity="1" fill-rule="nonzero"/><path fill="#01943e" d="M 37.714844 40.074219 C 37.980469 39.980469 38.207031 39.90625 38.507812 39.796875 C 38.558594 39.988281 38.75 40.28125 38.667969 40.457031 C 38.539062 40.765625 38.375 41.140625 37.867188 41.230469 C 37.816406 40.832031 37.765625 40.457031 37.714844 40.074219 Z M 37.714844 40.074219 " fill-opacity="1" fill-rule="nonzero"/><path fill="#01943e" d="M 21.855469 36.582031 C 21.90625 36.324219 21.949219 36.121094 21.992188 35.882812 C 22.355469 35.882812 22.722656 35.882812 23.117188 35.882812 C 23.117188 36.105469 23.117188 36.324219 23.117188 36.582031 C 22.707031 36.582031 22.308594 36.582031 21.855469 36.582031 Z M 21.855469 36.582031 " fill-opacity="1" fill-rule="nonzero"/><path fill="#01943e" d="M 38.605469 38.738281 C 38.859375 38.957031 38.832031 39.191406 38.699219 39.441406 C 38.53125 39.515625 38.359375 39.597656 38.183594 39.664062 C 38.007812 39.722656 37.824219 39.765625 37.597656 39.832031 C 37.632812 39.523438 37.664062 39.289062 37.707031 38.988281 C 37.984375 38.90625 38.300781 38.816406 38.605469 38.738281 Z M 38.605469 38.738281 " fill-opacity="1" fill-rule="nonzero"/><path fill="#01943e" d="M 48.882812 26.875 C 49.058594 27 49.058594 27.132812 48.925781 27.273438 C 48.730469 27.472656 48.605469 27.691406 48.792969 28.015625 C 48.480469 28.015625 48.230469 28.015625 47.898438 28.015625 C 47.925781 27.855469 47.914062 27.664062 48 27.554688 C 48.230469 27.25 48.441406 26.898438 48.882812 26.875 Z M 48.882812 26.875 " fill-opacity="1" fill-rule="nonzero"/><path fill="#01943e" d="M 39.382812 60.964844 C 39.230469 60.78125 39.058594 60.582031 38.882812 60.382812 C 39.042969 60.171875 39.164062 60.023438 39.308594 59.832031 C 39.5 59.921875 39.742188 59.929688 39.765625 60.199219 C 39.78125 60.496094 39.808594 60.808594 39.382812 60.964844 Z M 39.382812 60.964844 " fill-opacity="1" fill-rule="nonzero"/><path fill="#01943e" d="M 23.984375 42.480469 C 23.898438 42.332031 23.824219 42.214844 23.734375 42.058594 C 23.957031 41.871094 24.164062 41.699219 24.417969 41.472656 C 24.257812 41.847656 24.132812 42.132812 23.984375 42.480469 Z M 23.984375 42.480469 " fill-opacity="1" fill-rule="nonzero"/><path fill="#01943e" d="M 33.78125 52.808594 C 33.550781 52.980469 33.359375 53.113281 33.175781 53.246094 C 33.074219 53.105469 32.972656 52.972656 32.847656 52.808594 C 33.164062 52.808594 33.441406 52.808594 33.78125 52.808594 Z M 33.78125 52.808594 " fill-opacity="1" fill-rule="nonzero"/><path fill="#01943e" d="M 26.023438 27.082031 C 25.890625 27.007812 25.734375 26.957031 25.632812 26.863281 C 25.566406 26.796875 25.566406 26.648438 25.515625 26.480469 C 25.847656 26.640625 25.949219 26.855469 26 27.105469 Z M 26.023438 27.082031 " fill-opacity="1" fill-rule="nonzero"/><path fill="#01943e" d="M 32.199219 53 C 32.273438 52.988281 32.234375 52.996094 32.199219 53 C 32.234375 52.996094 32.273438 52.980469 32.199219 53 Z M 32.199219 53 " fill-opacity="1" fill-rule="nonzero"/><path fill="#01943e" d="M 24.367188 42.625 C 24.300781 42.65625 24.242188 42.691406 24.175781 42.722656 C 24.167969 42.699219 24.167969 42.683594 24.164062 42.664062 C 24.234375 42.65625 24.308594 42.648438 24.382812 42.640625 Z M 24.367188 42.625 " fill-opacity="1" fill-rule="nonzero"/><path fill="#01943e" d="M 35.972656 33 L 35.972656 33.039062 L 35.984375 32.988281 Z M 35.972656 33 " fill-opacity="1" fill-rule="nonzero"/><path fill="#01943e" d="M 37.648438 62.746094 C 37.523438 63.363281 36.875 63.28125 36.664062 63.679688 C 36.230469 63.554688 36.230469 63.554688 36.058594 63.015625 C 36.332031 62.789062 36.632812 62.539062 36.949219 62.273438 C 37.191406 62.433594 37.414062 62.582031 37.648438 62.746094 Z M 37.648438 62.746094 " fill-opacity="1" fill-rule="nonzero"/><g clip-path="url(#5f2e42494a)"><g transform="matrix(1, 0, 0, 1, 95, 33)"><g clip-path="url(#72b86f40d3)"><g fill="#01943e" fill-opacity="1"><g transform="translate(1.597868, 19.739976)"><g><path d="M 9.03125 0.25 C 7.957031 0.25 6.960938 0.0507812 6.046875 -0.34375 C 5.128906 -0.738281 4.335938 -1.285156 3.671875 -1.984375 C 3.015625 -2.679688 2.5 -3.5 2.125 -4.4375 C 1.75 -5.382812 1.5625 -6.394531 1.5625 -7.46875 L 1.5625 -7.515625 C 1.5625 -8.566406 1.75 -9.5625 2.125 -10.5 C 2.507812 -11.445312 3.035156 -12.273438 3.703125 -12.984375 C 4.367188 -13.691406 5.15625 -14.25 6.0625 -14.65625 C 6.976562 -15.070312 7.984375 -15.28125 9.078125 -15.28125 C 9.742188 -15.28125 10.347656 -15.222656 10.890625 -15.109375 C 11.441406 -14.992188 11.945312 -14.828125 12.40625 -14.609375 C 12.875 -14.390625 13.3125 -14.132812 13.71875 -13.84375 C 14.125 -13.550781 14.519531 -13.226562 14.90625 -12.875 L 14.109375 -12.0625 C 13.785156 -12.375 13.441406 -12.664062 13.078125 -12.9375 C 12.722656 -13.207031 12.34375 -13.4375 11.9375 -13.625 C 11.53125 -13.820312 11.085938 -13.976562 10.609375 -14.09375 C 10.128906 -14.207031 9.609375 -14.265625 9.046875 -14.265625 C 8.148438 -14.265625 7.316406 -14.09375 6.546875 -13.75 C 5.773438 -13.40625 5.101562 -12.925781 4.53125 -12.3125 C 3.96875 -11.707031 3.523438 -11 3.203125 -10.1875 C 2.878906 -9.375 2.71875 -8.492188 2.71875 -7.546875 L 2.71875 -7.515625 C 2.71875 -6.566406 2.882812 -5.679688 3.21875 -4.859375 C 3.550781 -4.035156 4 -3.316406 4.5625 -2.703125 C 5.125 -2.097656 5.789062 -1.617188 6.5625 -1.265625 C 7.332031 -0.921875 8.171875 -0.75 9.078125 -0.75 C 10.160156 -0.75 11.101562 -0.945312 11.90625 -1.34375 C 12.707031 -1.75 13.488281 -2.332031 14.25 -3.09375 L 15 -2.359375 C 14.59375 -1.972656 14.175781 -1.617188 13.75 -1.296875 C 13.332031 -0.972656 12.882812 -0.695312 12.40625 -0.46875 C 11.925781 -0.238281 11.40625 -0.0625 10.84375 0.0625 C 10.289062 0.1875 9.6875 0.25 9.03125 0.25 Z M 9.03125 0.25 "/></g></g></g><g fill="#01943e" fill-opacity="1"><g transform="translate(17.318435, 19.739976)"><g><path d="M 6.84375 0.25 C 6.03125 0.25 5.28125 0.0976562 4.59375 -0.203125 C 3.914062 -0.515625 3.328125 -0.925781 2.828125 -1.4375 C 2.328125 -1.945312 1.9375 -2.546875 1.65625 -3.234375 C 1.382812 -3.921875 1.25 -4.648438 1.25 -5.421875 L 1.25 -5.46875 C 1.25 -6.238281 1.382812 -6.96875 1.65625 -7.65625 C 1.9375 -8.34375 2.332031 -8.953125 2.84375 -9.484375 C 3.351562 -10.015625 3.945312 -10.429688 4.625 -10.734375 C 5.3125 -11.046875 6.066406 -11.203125 6.890625 -11.203125 C 7.703125 -11.203125 8.445312 -11.046875 9.125 -10.734375 C 9.800781 -10.429688 10.390625 -10.019531 10.890625 -9.5 C 11.398438 -8.988281 11.789062 -8.390625 12.0625 -7.703125 C 12.34375 -7.015625 12.484375 -6.285156 12.484375 -5.515625 L 12.484375 -5.46875 C 12.484375 -4.695312 12.34375 -3.96875 12.0625 -3.28125 C 11.789062 -2.59375 11.398438 -1.984375 10.890625 -1.453125 C 10.378906 -0.929688 9.78125 -0.515625 9.09375 -0.203125 C 8.40625 0.0976562 7.65625 0.25 6.84375 0.25 Z M 6.890625 -0.734375 C 7.535156 -0.734375 8.128906 -0.859375 8.671875 -1.109375 C 9.222656 -1.359375 9.695312 -1.691406 10.09375 -2.109375 C 10.488281 -2.535156 10.796875 -3.035156 11.015625 -3.609375 C 11.234375 -4.179688 11.34375 -4.785156 11.34375 -5.421875 L 11.34375 -5.46875 C 11.34375 -6.125 11.226562 -6.738281 11 -7.3125 C 10.769531 -7.894531 10.453125 -8.398438 10.046875 -8.828125 C 9.640625 -9.265625 9.160156 -9.601562 8.609375 -9.84375 C 8.054688 -10.09375 7.46875 -10.21875 6.84375 -10.21875 C 6.195312 -10.21875 5.597656 -10.085938 5.046875 -9.828125 C 4.492188 -9.578125 4.019531 -9.238281 3.625 -8.8125 C 3.238281 -8.394531 2.929688 -7.898438 2.703125 -7.328125 C 2.484375 -6.765625 2.375 -6.160156 2.375 -5.515625 L 2.375 -5.46875 C 2.375 -4.8125 2.488281 -4.191406 2.71875 -3.609375 C 2.945312 -3.035156 3.265625 -2.53125 3.671875 -2.09375 C 4.085938 -1.664062 4.566406 -1.332031 5.109375 -1.09375 C 5.660156 -0.851562 6.253906 -0.734375 6.890625 -0.734375 Z M 6.890625 -0.734375 "/></g></g></g><g fill="#01943e" fill-opacity="1"><g transform="translate(31.044458, 19.739976)"><g><path d="M 2 -10.9375 L 3.046875 -10.9375 L 3.046875 -7.828125 C 3.265625 -8.316406 3.535156 -8.765625 3.859375 -9.171875 C 4.191406 -9.585938 4.5625 -9.941406 4.96875 -10.234375 C 5.382812 -10.535156 5.835938 -10.757812 6.328125 -10.90625 C 6.828125 -11.0625 7.347656 -11.128906 7.890625 -11.109375 L 7.890625 -9.953125 L 7.78125 -9.953125 C 7.15625 -9.953125 6.554688 -9.832031 5.984375 -9.59375 C 5.410156 -9.363281 4.90625 -9.015625 4.46875 -8.546875 C 4.03125 -8.085938 3.679688 -7.515625 3.421875 -6.828125 C 3.171875 -6.148438 3.046875 -5.367188 3.046875 -4.484375 L 3.046875 0 L 2 0 Z M 2 -10.9375 "/></g></g></g><g fill="#01943e" fill-opacity="1"><g transform="translate(39.623218, 19.739976)"><g><path d="M 2 -10.9375 L 3.046875 -10.9375 L 3.046875 -8.5 C 3.273438 -8.851562 3.539062 -9.191406 3.84375 -9.515625 C 4.144531 -9.847656 4.476562 -10.132812 4.84375 -10.375 C 5.207031 -10.625 5.613281 -10.820312 6.0625 -10.96875 C 6.507812 -11.125 7.003906 -11.203125 7.546875 -11.203125 C 8.203125 -11.203125 8.847656 -11.070312 9.484375 -10.8125 C 10.128906 -10.550781 10.703125 -10.175781 11.203125 -9.6875 C 11.703125 -9.207031 12.101562 -8.613281 12.40625 -7.90625 C 12.71875 -7.195312 12.875 -6.398438 12.875 -5.515625 L 12.875 -5.46875 C 12.875 -4.582031 12.71875 -3.785156 12.40625 -3.078125 C 12.101562 -2.367188 11.703125 -1.765625 11.203125 -1.265625 C 10.703125 -0.773438 10.128906 -0.398438 9.484375 -0.140625 C 8.847656 0.117188 8.203125 0.25 7.546875 0.25 C 7.003906 0.25 6.503906 0.175781 6.046875 0.03125 C 5.585938 -0.101562 5.175781 -0.289062 4.8125 -0.53125 C 4.445312 -0.78125 4.117188 -1.0625 3.828125 -1.375 C 3.535156 -1.6875 3.273438 -2.015625 3.046875 -2.359375 L 3.046875 3.4375 L 2 3.4375 Z M 7.4375 -0.75 C 8.039062 -0.75 8.601562 -0.851562 9.125 -1.0625 C 9.644531 -1.28125 10.097656 -1.585938 10.484375 -1.984375 C 10.867188 -2.390625 11.171875 -2.878906 11.390625 -3.453125 C 11.617188 -4.035156 11.734375 -4.691406 11.734375 -5.421875 L 11.734375 -5.46875 C 11.734375 -6.1875 11.617188 -6.835938 11.390625 -7.421875 C 11.160156 -8.003906 10.847656 -8.5 10.453125 -8.90625 C 10.066406 -9.320312 9.609375 -9.640625 9.078125 -9.859375 C 8.554688 -10.078125 8.007812 -10.1875 7.4375 -10.1875 C 6.875 -10.1875 6.320312 -10.070312 5.78125 -9.84375 C 5.25 -9.613281 4.773438 -9.289062 4.359375 -8.875 C 3.941406 -8.46875 3.609375 -7.976562 3.359375 -7.40625 C 3.109375 -6.832031 2.984375 -6.191406 2.984375 -5.484375 L 2.984375 -5.453125 C 2.984375 -4.742188 3.109375 -4.097656 3.359375 -3.515625 C 3.609375 -2.941406 3.941406 -2.453125 4.359375 -2.046875 C 4.773438 -1.640625 5.25 -1.320312 5.78125 -1.09375 C 6.320312 -0.863281 6.875 -0.75 7.4375 -0.75 Z M 7.4375 -0.75 "/></g></g></g><g fill="#01943e" fill-opacity="1"><g transform="translate(53.778174, 19.739976)"><g><path d="M 6.84375 0.25 C 6.03125 0.25 5.28125 0.0976562 4.59375 -0.203125 C 3.914062 -0.515625 3.328125 -0.925781 2.828125 -1.4375 C 2.328125 -1.945312 1.9375 -2.546875 1.65625 -3.234375 C 1.382812 -3.921875 1.25 -4.648438 1.25 -5.421875 L 1.25 -5.46875 C 1.25 -6.238281 1.382812 -6.96875 1.65625 -7.65625 C 1.9375 -8.34375 2.332031 -8.953125 2.84375 -9.484375 C 3.351562 -10.015625 3.945312 -10.429688 4.625 -10.734375 C 5.3125 -11.046875 6.066406 -11.203125 6.890625 -11.203125 C 7.703125 -11.203125 8.445312 -11.046875 9.125 -10.734375 C 9.800781 -10.429688 10.390625 -10.019531 10.890625 -9.5 C 11.398438 -8.988281 11.789062 -8.390625 12.0625 -7.703125 C 12.34375 -7.015625 12.484375 -6.285156 12.484375 -5.515625 L 12.484375 -5.46875 C 12.484375 -4.695312 12.34375 -3.96875 12.0625 -3.28125 C 11.789062 -2.59375 11.398438 -1.984375 10.890625 -1.453125 C 10.378906 -0.929688 9.78125 -0.515625 9.09375 -0.203125 C 8.40625 0.0976562 7.65625 0.25 6.84375 0.25 Z M 6.890625 -0.734375 C 7.535156 -0.734375 8.128906 -0.859375 8.671875 -1.109375 C 9.222656 -1.359375 9.695312 -1.691406 10.09375 -2.109375 C 10.488281 -2.535156 10.796875 -3.035156 11.015625 -3.609375 C 11.234375 -4.179688 11.34375 -4.785156 11.34375 -5.421875 L 11.34375 -5.46875 C 11.34375 -6.125 11.226562 -6.738281 11 -7.3125 C 10.769531 -7.894531 10.453125 -8.398438 10.046875 -8.828125 C 9.640625 -9.265625 9.160156 -9.601562 8.609375 -9.84375 C 8.054688 -10.09375 7.46875 -10.21875 6.84375 -10.21875 C 6.195312 -10.21875 5.597656 -10.085938 5.046875 -9.828125 C 4.492188 -9.578125 4.019531 -9.238281 3.625 -8.8125 C 3.238281 -8.394531 2.929688 -7.898438 2.703125 -7.328125 C 2.484375 -6.765625 2.375 -6.160156 2.375 -5.515625 L 2.375 -5.46875 C 2.375 -4.8125 2.488281 -4.191406 2.71875 -3.609375 C 2.945312 -3.035156 3.265625 -2.53125 3.671875 -2.09375 C 4.085938 -1.664062 4.566406 -1.332031 5.109375 -1.09375 C 5.660156 -0.851562 6.253906 -0.734375 6.890625 -0.734375 Z M 6.890625 -0.734375 "/></g></g></g><g fill="#01943e" fill-opacity="1"><g transform="translate(67.504197, 19.739976)"><g><path d="M 2 -10.9375 L 3.046875 -10.9375 L 3.046875 -7.828125 C 3.265625 -8.316406 3.535156 -8.765625 3.859375 -9.171875 C 4.191406 -9.585938 4.5625 -9.941406 4.96875 -10.234375 C 5.382812 -10.535156 5.835938 -10.757812 6.328125 -10.90625 C 6.828125 -11.0625 7.347656 -11.128906 7.890625 -11.109375 L 7.890625 -9.953125 L 7.78125 -9.953125 C 7.15625 -9.953125 6.554688 -9.832031 5.984375 -9.59375 C 5.410156 -9.363281 4.90625 -9.015625 4.46875 -8.546875 C 4.03125 -8.085938 3.679688 -7.515625 3.421875 -6.828125 C 3.171875 -6.148438 3.046875 -5.367188 3.046875 -4.484375 L 3.046875 0 L 2 0 Z M 2 -10.9375 "/></g></g></g><g fill="#01943e" fill-opacity="1"><g transform="translate(75.546741, 19.739976)"><g><path d="M 5.328125 0.25 C 4.804688 0.25 4.296875 0.175781 3.796875 0.03125 C 3.296875 -0.101562 2.84375 -0.3125 2.4375 -0.59375 C 2.039062 -0.882812 1.71875 -1.242188 1.46875 -1.671875 C 1.21875 -2.097656 1.09375 -2.597656 1.09375 -3.171875 L 1.09375 -3.21875 C 1.09375 -3.789062 1.207031 -4.296875 1.4375 -4.734375 C 1.675781 -5.179688 2.003906 -5.554688 2.421875 -5.859375 C 2.835938 -6.160156 3.335938 -6.390625 3.921875 -6.546875 C 4.515625 -6.703125 5.164062 -6.78125 5.875 -6.78125 C 6.644531 -6.78125 7.304688 -6.734375 7.859375 -6.640625 C 8.421875 -6.554688 8.96875 -6.445312 9.5 -6.3125 L 9.5 -6.78125 C 9.5 -7.894531 9.179688 -8.726562 8.546875 -9.28125 C 7.910156 -9.84375 7.03125 -10.125 5.90625 -10.125 C 5.226562 -10.125 4.609375 -10.039062 4.046875 -9.875 C 3.492188 -9.707031 2.96875 -9.5 2.46875 -9.25 L 2.078125 -10.171875 C 2.679688 -10.453125 3.289062 -10.675781 3.90625 -10.84375 C 4.519531 -11.019531 5.207031 -11.109375 5.96875 -11.109375 C 7.46875 -11.109375 8.617188 -10.707031 9.421875 -9.90625 C 10.160156 -9.164062 10.53125 -8.140625 10.53125 -6.828125 L 10.53125 0 L 9.5 0 L 9.5 -1.828125 C 9.3125 -1.566406 9.085938 -1.3125 8.828125 -1.0625 C 8.566406 -0.8125 8.265625 -0.585938 7.921875 -0.390625 C 7.578125 -0.203125 7.1875 -0.0507812 6.75 0.0625 C 6.3125 0.1875 5.835938 0.25 5.328125 0.25 Z M 5.390625 -0.734375 C 5.941406 -0.734375 6.46875 -0.8125 6.96875 -0.96875 C 7.46875 -1.132812 7.90625 -1.363281 8.28125 -1.65625 C 8.664062 -1.957031 8.96875 -2.3125 9.1875 -2.71875 C 9.414062 -3.132812 9.53125 -3.59375 9.53125 -4.09375 L 9.53125 -5.34375 C 9.070312 -5.457031 8.535156 -5.566406 7.921875 -5.671875 C 7.304688 -5.773438 6.601562 -5.828125 5.8125 -5.828125 C 4.65625 -5.828125 3.765625 -5.59375 3.140625 -5.125 C 2.515625 -4.664062 2.203125 -4.050781 2.203125 -3.28125 L 2.203125 -3.234375 C 2.203125 -2.835938 2.285156 -2.484375 2.453125 -2.171875 C 2.628906 -1.867188 2.863281 -1.609375 3.15625 -1.390625 C 3.457031 -1.179688 3.800781 -1.019531 4.1875 -0.90625 C 4.570312 -0.789062 4.972656 -0.734375 5.390625 -0.734375 Z M 5.390625 -0.734375 "/></g></g></g><g fill="#01943e" fill-opacity="1"><g transform="translate(87.750023, 19.739976)"><g><path d="M 5.640625 0.1875 C 5.210938 0.1875 4.8125 0.128906 4.4375 0.015625 C 4.070312 -0.0976562 3.75 -0.28125 3.46875 -0.53125 C 3.1875 -0.78125 2.96875 -1.09375 2.8125 -1.46875 C 2.65625 -1.84375 2.578125 -2.289062 2.578125 -2.8125 L 2.578125 -9.96875 L 0.984375 -9.96875 L 0.984375 -10.9375 L 2.578125 -10.9375 L 2.578125 -14.4375 L 3.625 -14.4375 L 3.625 -10.9375 L 7.46875 -10.9375 L 7.46875 -9.96875 L 3.625 -9.96875 L 3.625 -2.921875 C 3.625 -2.128906 3.828125 -1.578125 4.234375 -1.265625 C 4.640625 -0.953125 5.164062 -0.796875 5.8125 -0.796875 C 6.082031 -0.796875 6.335938 -0.820312 6.578125 -0.875 C 6.828125 -0.9375 7.109375 -1.039062 7.421875 -1.1875 L 7.421875 -0.1875 C 7.140625 -0.0625 6.859375 0.03125 6.578125 0.09375 C 6.296875 0.15625 5.984375 0.1875 5.640625 0.1875 Z M 5.640625 0.1875 "/></g></g></g><g fill="#01943e" fill-opacity="1"><g transform="translate(96.328783, 19.739976)"><g><path d="M 2.015625 -15.234375 L 3.328125 -15.234375 L 3.328125 -13.796875 L 2.015625 -13.796875 Z M 2.140625 -10.9375 L 3.203125 -10.9375 L 3.203125 0 L 2.140625 0 Z M 2.140625 -10.9375 "/></g></g></g><g fill="#01943e" fill-opacity="1"><g transform="translate(101.669069, 19.739976)"><g><path d="M 6.84375 0.25 C 6.03125 0.25 5.28125 0.0976562 4.59375 -0.203125 C 3.914062 -0.515625 3.328125 -0.925781 2.828125 -1.4375 C 2.328125 -1.945312 1.9375 -2.546875 1.65625 -3.234375 C 1.382812 -3.921875 1.25 -4.648438 1.25 -5.421875 L 1.25 -5.46875 C 1.25 -6.238281 1.382812 -6.96875 1.65625 -7.65625 C 1.9375 -8.34375 2.332031 -8.953125 2.84375 -9.484375 C 3.351562 -10.015625 3.945312 -10.429688 4.625 -10.734375 C 5.3125 -11.046875 6.066406 -11.203125 6.890625 -11.203125 C 7.703125 -11.203125 8.445312 -11.046875 9.125 -10.734375 C 9.800781 -10.429688 10.390625 -10.019531 10.890625 -9.5 C 11.398438 -8.988281 11.789062 -8.390625 12.0625 -7.703125 C 12.34375 -7.015625 12.484375 -6.285156 12.484375 -5.515625 L 12.484375 -5.46875 C 12.484375 -4.695312 12.34375 -3.96875 12.0625 -3.28125 C 11.789062 -2.59375 11.398438 -1.984375 10.890625 -1.453125 C 10.378906 -0.929688 9.78125 -0.515625 9.09375 -0.203125 C 8.40625 0.0976562 7.65625 0.25 6.84375 0.25 Z M 6.890625 -0.734375 C 7.535156 -0.734375 8.128906 -0.859375 8.671875 -1.109375 C 9.222656 -1.359375 9.695312 -1.691406 10.09375 -2.109375 C 10.488281 -2.535156 10.796875 -3.035156 11.015625 -3.609375 C 11.234375 -4.179688 11.34375 -4.785156 11.34375 -5.421875 L 11.34375 -5.46875 C 11.34375 -6.125 11.226562 -6.738281 11 -7.3125 C 10.769531 -7.894531 10.453125 -8.398438 10.046875 -8.828125 C 9.640625 -9.265625 9.160156 -9.601562 8.609375 -9.84375 C 8.054688 -10.09375 7.46875 -10.21875 6.84375 -10.21875 C 6.195312 -10.21875 5.597656 -10.085938 5.046875 -9.828125 C 4.492188 -9.578125 4.019531 -9.238281 3.625 -8.8125 C 3.238281 -8.394531 2.929688 -7.898438 2.703125 -7.328125 C 2.484375 -6.765625 2.375 -6.160156 2.375 -5.515625 L 2.375 -5.46875 C 2.375 -4.8125 2.488281 -4.191406 2.71875 -3.609375 C 2.945312 -3.035156 3.265625 -2.53125 3.671875 -2.09375 C 4.085938 -1.664062 4.566406 -1.332031 5.109375 -1.09375 C 5.660156 -0.851562 6.253906 -0.734375 6.890625 -0.734375 Z M 6.890625 -0.734375 "/></g></g></g><g fill="#01943e" fill-opacity="1"><g transform="translate(115.395092, 19.739976)"><g><path d="M 2 -10.9375 L 3.046875 -10.9375 L 3.046875 -8.90625 C 3.421875 -9.550781 3.921875 -10.09375 4.546875 -10.53125 C 5.171875 -10.976562 5.988281 -11.203125 7 -11.203125 C 7.6875 -11.203125 8.300781 -11.085938 8.84375 -10.859375 C 9.382812 -10.640625 9.84375 -10.328125 10.21875 -9.921875 C 10.601562 -9.523438 10.890625 -9.050781 11.078125 -8.5 C 11.273438 -7.957031 11.375 -7.351562 11.375 -6.6875 L 11.375 0 L 10.3125 0 L 10.3125 -6.5 C 10.3125 -7.625 10.007812 -8.523438 9.40625 -9.203125 C 8.8125 -9.890625 7.957031 -10.234375 6.84375 -10.234375 C 6.300781 -10.234375 5.800781 -10.132812 5.34375 -9.9375 C 4.882812 -9.75 4.484375 -9.484375 4.140625 -9.140625 C 3.796875 -8.796875 3.523438 -8.382812 3.328125 -7.90625 C 3.140625 -7.425781 3.046875 -6.898438 3.046875 -6.328125 L 3.046875 0 L 2 0 Z M 2 -10.9375 "/></g></g></g></g></g></g></svg>